<svg id="e5ba4dba-d7c6-4394-adcb-ad50fd27ea2d" xmlns="http://www.w3.org/2000/svg" viewBox="0 0 621.41 660.78"><defs><style>.cls-1{fill:#35323e;}.cls-2,.cls-8{fill:#fff;}.cls-3{fill:#af0808;}.cls-15,.cls-3,.cls-8{opacity:0.03;}.cls-15,.cls-3,.cls-5,.cls-8{isolation:isolate;}.cls-4{fill:#464353;}.cls-11,.cls-5{opacity:0.1;}.cls-6{fill:#771d42;}.cls-7{fill:#ad6179;}.cls-9{fill:#efb7b9;}.cls-10{fill:#222121;}.cls-12{fill:#4c4981;}.cls-13{fill:#925978;}.cls-14{fill:#444053;}</style></defs><title>destaque4</title><rect class="cls-1" x="69.92" y="144.96" width="483.61" height="104.35" rx="7.42"/><path class="cls-2" d="M309.34,52.15S316.21,239,304,260.85H715.77s-17.49-143.71,0-208.7Z" transform="translate(-198.49 -33.41)"/><path class="cls-3" d="M309.34,52.15S316.21,239,304,260.85H715.77s-17.49-143.71,0-208.7Z" transform="translate(-198.49 -33.41)"/><rect class="cls-1" x="153.02" y="219.48" width="301.79" height="37.49"/><path class="cls-4" d="M787.67,694.19H228.31a29.82,29.82,0,0,1-29.82-29.82,30.41,30.41,0,0,1,.18-3.3L210.11,558q1.13-10.28,1.63-20.61l2.15-69.9q.74-23.69,3.2-47.26,1.28-12.22,3-24.39L234.8,293.34a54,54,0,0,1,53.4-46.2h22.34A52.5,52.5,0,0,1,342,257.71c23.14,17.27,88.88,29.73,166.38,29.73S651.58,275,674.77,257.67a52.5,52.5,0,0,1,31.41-10.57h36.19a32.35,32.35,0,0,1,31.86,26.74l19.75,112q3,17.09,5.09,34.3,3.48,28.64,4.37,57.51l2,65A365.61,365.61,0,0,0,809,583.07l10.61,74.31a32.21,32.21,0,0,1-31.89,36.81Z" transform="translate(-198.49 -33.41)"/><rect class="cls-5" x="43.06" y="401.47" width="534.22" height="229.63" rx="19.96"/><ellipse class="cls-6" cx="77.42" cy="428.33" rx="15.31" ry="12.81"/><ellipse class="cls-7" cx="77.42" cy="425.52" rx="15.31" ry="12.81"/><ellipse class="cls-1" cx="95.54" cy="473.01" rx="15.31" ry="12.81"/><ellipse class="cls-5" cx="95.54" cy="473.01" rx="15.31" ry="12.81"/><ellipse class="cls-1" cx="95.54" cy="470.2" rx="15.31" ry="12.81"/><ellipse class="cls-1" cx="105.54" cy="517.69" rx="15.31" ry="12.81"/><ellipse class="cls-5" cx="105.54" cy="517.69" rx="15.31" ry="12.81"/><ellipse class="cls-1" cx="105.54" cy="514.88" rx="15.31" ry="12.81"/><ellipse class="cls-1" cx="66.8" cy="523" rx="15.31" ry="12.81"/><ellipse class="cls-5" cx="66.8" cy="523" rx="15.31" ry="12.81"/><ellipse class="cls-1" cx="66.8" cy="520.19" rx="15.31" ry="12.81"/><ellipse class="cls-1" cx="124.28" cy="562.36" rx="15.31" ry="12.81"/><ellipse class="cls-5" cx="124.28" cy="562.36" rx="15.31" ry="12.81"/><ellipse class="cls-1" cx="124.28" cy="559.55" rx="15.31" ry="12.81"/><ellipse class="cls-1" cx="73.05" cy="563.93" rx="15.31" ry="12.81"/><ellipse class="cls-5" cx="73.05" cy="563.93" rx="15.31" ry="12.81"/><ellipse class="cls-1" cx="73.05" cy="561.11" rx="15.31" ry="12.81"/><ellipse class="cls-1" cx="166.46" cy="562.36" rx="15.31" ry="12.81"/><ellipse class="cls-5" cx="166.46" cy="562.36" rx="15.31" ry="12.81"/><ellipse class="cls-1" cx="166.46" cy="559.55" rx="15.31" ry="12.81"/><ellipse class="cls-1" cx="211.13" cy="562.36" rx="15.31" ry="12.81"/><ellipse class="cls-5" cx="211.13" cy="562.36" rx="15.31" ry="12.81"/><ellipse class="cls-1" cx="211.13" cy="559.55" rx="15.31" ry="12.81"/><ellipse class="cls-1" cx="252.37" cy="562.36" rx="15.31" ry="12.81"/><ellipse class="cls-5" cx="252.37" cy="562.36" rx="15.31" ry="12.81"/><ellipse class="cls-1" cx="252.37" cy="559.55" rx="15.31" ry="12.81"/><ellipse class="cls-1" cx="297.98" cy="562.36" rx="15.31" ry="12.81"/><ellipse class="cls-5" cx="297.98" cy="562.36" rx="15.31" ry="12.81"/><ellipse class="cls-1" cx="297.98" cy="559.55" rx="15.31" ry="12.81"/><ellipse class="cls-1" cx="339.22" cy="562.36" rx="15.31" ry="12.81"/><ellipse class="cls-5" cx="339.22" cy="562.36" rx="15.31" ry="12.81"/><ellipse class="cls-1" cx="339.22" cy="559.55" rx="15.31" ry="12.81"/><ellipse class="cls-1" cx="380.14" cy="562.36" rx="15.31" ry="12.81"/><ellipse class="cls-5" cx="380.14" cy="562.36" rx="15.31" ry="12.81"/><ellipse class="cls-1" cx="380.14" cy="559.55" rx="15.31" ry="12.81"/><ellipse class="cls-1" cx="424.51" cy="562.36" rx="15.31" ry="12.81"/><ellipse class="cls-5" cx="424.51" cy="562.36" rx="15.31" ry="12.81"/><ellipse class="cls-1" cx="424.51" cy="559.55" rx="15.31" ry="12.81"/><ellipse class="cls-1" cx="466.06" cy="562.36" rx="15.31" ry="12.81"/><ellipse class="cls-5" cx="466.06" cy="562.36" rx="15.31" ry="12.81"/><ellipse class="cls-1" cx="466.06" cy="559.55" rx="15.31" ry="12.81"/><ellipse class="cls-1" cx="511.98" cy="562.36" rx="15.31" ry="12.81"/><ellipse class="cls-5" cx="511.98" cy="562.36" rx="15.31" ry="12.81"/><ellipse class="cls-1" cx="511.98" cy="559.55" rx="15.31" ry="12.81"/><ellipse class="cls-1" cx="559.16" cy="562.36" rx="15.31" ry="12.81"/><ellipse class="cls-5" cx="559.16" cy="562.36" rx="15.31" ry="12.81"/><ellipse class="cls-1" cx="559.16" cy="559.55" rx="15.31" ry="12.81"/><ellipse class="cls-1" cx="148.03" cy="517.69" rx="15.31" ry="12.81"/><ellipse class="cls-5" cx="148.03" cy="517.69" rx="15.31" ry="12.81"/><ellipse class="cls-1" cx="148.03" cy="514.88" rx="15.31" ry="12.81"/><ellipse class="cls-1" cx="190.51" cy="517.69" rx="15.31" ry="12.81"/><ellipse class="cls-5" cx="190.51" cy="517.69" rx="15.31" ry="12.81"/><ellipse class="cls-1" cx="190.51" cy="514.88" rx="15.31" ry="12.81"/><ellipse class="cls-1" cx="234.25" cy="517.69" rx="15.31" ry="12.81"/><ellipse class="cls-5" cx="234.25" cy="517.69" rx="15.31" ry="12.81"/><ellipse class="cls-1" cx="234.25" cy="514.88" rx="15.31" ry="12.81"/><ellipse class="cls-1" cx="276.11" cy="517.69" rx="15.31" ry="12.81"/><ellipse class="cls-5" cx="276.11" cy="517.69" rx="15.31" ry="12.81"/><ellipse class="cls-1" cx="276.11" cy="514.88" rx="15.31" ry="12.81"/><ellipse class="cls-1" cx="318.91" cy="517.69" rx="15.31" ry="12.81"/><ellipse class="cls-5" cx="318.91" cy="517.69" rx="15.31" ry="12.81"/><ellipse class="cls-1" cx="318.91" cy="514.88" rx="15.31" ry="12.81"/><ellipse class="cls-1" cx="359.84" cy="517.69" rx="15.31" ry="12.81"/><ellipse class="cls-5" cx="359.84" cy="517.69" rx="15.31" ry="12.81"/><ellipse class="cls-1" cx="359.84" cy="514.88" rx="15.31" ry="12.81"/><ellipse class="cls-1" cx="404.2" cy="517.69" rx="15.31" ry="12.81"/><ellipse class="cls-5" cx="404.2" cy="517.69" rx="15.31" ry="12.81"/><ellipse class="cls-1" cx="404.2" cy="514.88" rx="15.31" ry="12.81"/><ellipse class="cls-1" cx="446.38" cy="517.69" rx="15.31" ry="12.81"/><ellipse class="cls-5" cx="446.38" cy="517.69" rx="15.31" ry="12.81"/><ellipse class="cls-1" cx="446.38" cy="514.88" rx="15.31" ry="12.81"/><ellipse class="cls-1" cx="489.49" cy="517.69" rx="15.31" ry="12.81"/><ellipse class="cls-5" cx="489.49" cy="517.69" rx="15.31" ry="12.81"/><ellipse class="cls-1" cx="489.49" cy="514.88" rx="15.31" ry="12.81"/><ellipse class="cls-1" cx="532.6" cy="517.69" rx="15.31" ry="12.81"/><ellipse class="cls-5" cx="532.6" cy="517.69" rx="15.31" ry="12.81"/><ellipse class="cls-1" cx="532.6" cy="514.88" rx="15.31" ry="12.81"/><ellipse class="cls-1" cx="138.65" cy="473.01" rx="15.31" ry="12.81"/><ellipse class="cls-5" cx="138.65" cy="473.01" rx="15.31" ry="12.81"/><ellipse class="cls-1" cx="138.65" cy="470.2" rx="15.31" ry="12.81"/><ellipse class="cls-1" cx="181.77" cy="473.01" rx="15.31" ry="12.81"/><ellipse class="cls-5" cx="181.77" cy="473.01" rx="15.31" ry="12.81"/><ellipse class="cls-1" cx="181.77" cy="470.2" rx="15.31" ry="12.81"/><ellipse class="cls-1" cx="223.32" cy="473.01" rx="15.31" ry="12.81"/><ellipse class="cls-5" cx="223.32" cy="473.01" rx="15.31" ry="12.81"/><ellipse class="cls-1" cx="223.32" cy="470.2" rx="15.31" ry="12.81"/><ellipse class="cls-1" cx="264.87" cy="473.01" rx="15.31" ry="12.81"/><ellipse class="cls-5" cx="264.87" cy="473.01" rx="15.31" ry="12.81"/><ellipse class="cls-1" cx="264.87" cy="470.2" rx="15.31" ry="12.81"/><ellipse class="cls-1" cx="306.73" cy="473.01" rx="15.31" ry="12.81"/><ellipse class="cls-5" cx="306.73" cy="473.01" rx="15.31" ry="12.81"/><ellipse class="cls-1" cx="306.73" cy="470.2" rx="15.31" ry="12.81"/><ellipse class="cls-1" cx="347.97" cy="473.01" rx="15.31" ry="12.81"/><ellipse class="cls-5" cx="347.97" cy="473.01" rx="15.31" ry="12.81"/><ellipse class="cls-1" cx="347.97" cy="470.2" rx="15.31" ry="12.81"/><ellipse class="cls-1" cx="391.7" cy="473.01" rx="15.31" ry="12.81"/><ellipse class="cls-5" cx="391.7" cy="473.01" rx="15.31" ry="12.81"/><ellipse class="cls-1" cx="391.7" cy="470.2" rx="15.31" ry="12.81"/><ellipse class="cls-1" cx="432.94" cy="473.01" rx="15.31" ry="12.81"/><ellipse class="cls-5" cx="432.94" cy="473.01" rx="15.31" ry="12.81"/><ellipse class="cls-1" cx="432.94" cy="470.2" rx="15.31" ry="12.81"/><ellipse class="cls-1" cx="476.99" cy="473.01" rx="15.31" ry="12.81"/><ellipse class="cls-5" cx="476.99" cy="473.01" rx="15.31" ry="12.81"/><ellipse class="cls-1" cx="476.99" cy="470.2" rx="15.31" ry="12.81"/><ellipse class="cls-1" cx="520.1" cy="473.01" rx="15.31" ry="12.81"/><ellipse class="cls-5" cx="520.1" cy="473.01" rx="15.31" ry="12.81"/><ellipse class="cls-1" cx="520.1" cy="470.2" rx="15.31" ry="12.81"/><ellipse class="cls-1" cx="117.41" cy="428.33" rx="15.31" ry="12.81"/><ellipse class="cls-5" cx="117.41" cy="428.33" rx="15.31" ry="12.81"/><ellipse class="cls-1" cx="117.41" cy="425.52" rx="15.31" ry="12.81"/><ellipse class="cls-1" cx="159.9" cy="428.33" rx="15.31" ry="12.81"/><ellipse class="cls-5" cx="159.9" cy="428.33" rx="15.31" ry="12.81"/><ellipse class="cls-1" cx="159.9" cy="425.52" rx="15.31" ry="12.81"/><ellipse class="cls-1" cx="200.82" cy="428.33" rx="15.31" ry="12.81"/><ellipse class="cls-5" cx="200.82" cy="428.33" rx="15.31" ry="12.81"/><ellipse class="cls-1" cx="200.82" cy="425.52" rx="15.31" ry="12.81"/><ellipse class="cls-1" cx="243" cy="428.33" rx="15.31" ry="12.81"/><ellipse class="cls-5" cx="243" cy="428.33" rx="15.31" ry="12.81"/><ellipse class="cls-1" cx="243" cy="425.52" rx="15.31" ry="12.81"/><ellipse class="cls-1" cx="284.55" cy="428.33" rx="15.31" ry="12.81"/><ellipse class="cls-5" cx="284.55" cy="428.33" rx="15.31" ry="12.81"/><ellipse class="cls-1" cx="284.55" cy="425.52" rx="15.31" ry="12.81"/><ellipse class="cls-1" cx="327.04" cy="428.33" rx="15.31" ry="12.81"/><ellipse class="cls-5" cx="327.04" cy="428.33" rx="15.31" ry="12.81"/><ellipse class="cls-1" cx="327.04" cy="425.52" rx="15.31" ry="12.81"/><ellipse class="cls-1" cx="368.59" cy="428.33" rx="15.31" ry="12.81"/><ellipse class="cls-5" cx="368.59" cy="428.33" rx="15.31" ry="12.81"/><ellipse class="cls-1" cx="368.59" cy="425.52" rx="15.31" ry="12.81"/><ellipse class="cls-1" cx="410.76" cy="428.33" rx="15.31" ry="12.81"/><ellipse class="cls-5" cx="410.76" cy="428.33" rx="15.31" ry="12.81"/><ellipse class="cls-1" cx="410.76" cy="425.52" rx="15.31" ry="12.81"/><ellipse class="cls-1" cx="454.19" cy="428.33" rx="15.31" ry="12.81"/><ellipse class="cls-5" cx="454.19" cy="428.33" rx="15.31" ry="12.81"/><ellipse class="cls-1" cx="454.19" cy="425.52" rx="15.31" ry="12.81"/><ellipse class="cls-1" cx="496.67" cy="428.33" rx="15.31" ry="12.81"/><ellipse class="cls-5" cx="496.67" cy="428.33" rx="15.31" ry="12.81"/><ellipse class="cls-1" cx="496.67" cy="425.52" rx="15.31" ry="12.81"/><ellipse class="cls-6" cx="538.22" cy="428.33" rx="15.31" ry="12.81"/><ellipse class="cls-7" cx="538.22" cy="425.52" rx="15.31" ry="12.81"/><rect class="cls-1" x="77.42" y="592.36" width="467.68" height="24.68" rx="9.07"/><rect class="cls-5" x="77.42" y="592.36" width="467.68" height="24.68" rx="9.07"/><rect class="cls-1" x="77.42" y="590.48" width="467.68" height="24.68" rx="9.07"/><path class="cls-5" d="M679.86,331.46c0,26.4-83.56,54.67-177.77,54.67s-164-30.46-164-56.86,69.81-38.74,164-38.74S679.86,305.06,679.86,331.46Z" transform="translate(-198.49 -33.41)"/><ellipse class="cls-4" cx="564.15" cy="195.11" rx="10.31" ry="25.46"/><ellipse class="cls-4" cx="59.3" cy="195.11" rx="10.31" ry="25.46"/><rect class="cls-5" x="66.8" y="189.02" width="497.35" height="7.5"/><rect class="cls-4" x="66.8" y="187.77" width="497.35" height="7.5"/><path class="cls-4" d="M521.77,230.55C517.7,229.3,510.21,254,510.21,254H533S525.84,231.8,521.77,230.55Zm-.32,3.12a2.19,2.19,0,1,1-2.18,2.2h0a2.19,2.19,0,0,1,2.19-2.19h0Zm.26,7.06c2.67.65,7.4,12.31,7.4,12.31h-15s4.94-13,7.66-12.31Z" transform="translate(-198.49 -33.41)"/><path class="cls-8" d="M799.07,420.17h-582q1.27-12.23,3-24.39L234.78,293.3a54,54,0,0,1,53.4-46.2h22.34a52.5,52.5,0,0,1,31.41,10.57c23.14,17.27,88.88,29.73,166.38,29.73S651.58,275,674.77,257.67a52.5,52.5,0,0,1,31.41-10.57h36.19a32.35,32.35,0,0,1,31.86,26.74l19.75,112Q797,403,799.07,420.17Z" transform="translate(-198.49 -33.41)"/><path class="cls-9" d="M216.59,58.77l.27,2.1L226,62.16s.75-.56,1.92-1.32c2.17-1.41,5.79-3.53,8.89-4.13,4.77-.94,20-7.77,15.08-8.22s-4.39.57-4.39.57-5.4-5.3-11-.45c-4.23,3.68-13.54,7.63-17.77,9.32Z" transform="translate(-198.49 -33.41)"/><path class="cls-10" d="M253,34.56a15.8,15.8,0,0,1,4.37-1.12,5.38,5.38,0,0,1,4.17,1.39c.59.61,1,1.39,1.54,2,2.78,3,8.18.75,11.53,3.07,2.06,1.42,2.7,4.12,3.43,6.52s2.06,5,4.52,5.56a13.35,13.35,0,0,0,3.57-.14,3.5,3.5,0,0,1,3.2,1.18c1.14,1.72-.43,4.62,1.22,5.85,1.47,1.09,4.15-.44,5.18,1.09a2.27,2.27,0,0,1-.35,2.5,17.77,17.77,0,0,0-1.68,2.1,3.19,3.19,0,0,0,3.14,4.66c1-.1,2.15-.7,3.06-.18a2.18,2.18,0,0,1,.92,1.71,4.49,4.49,0,0,1-4,4.75c-1.77.11-3.4-.85-5-1.66s-3.44-1.5-5.09-.83a7.94,7.94,0,0,0-2,1.45,22.36,22.36,0,0,1-6.29,3.73c-2,.78-4.35,1.26-6.28.28-2.17-1.11-3.29-3.82-5.59-4.64s-4.93.71-7.13,2-5.15,2.4-7.14.79-1.48-5.2-2.79-7.62a7.42,7.42,0,0,0-2.09-2.3c-1.47-1.14-3.14-2-4.61-3.1a7.71,7.71,0,0,1-3.16-4.42c-.43-2.19.62-4.39,1.8-6.28s2.57-3.75,3-5.94c.28-1.64,0-3.35.37-5a6.15,6.15,0,0,1,4-4.2c1.08-.37,1.28-.28,1.82-1.23A4,4,0,0,1,253,34.56Z" transform="translate(-198.49 -33.41)"/><g class="cls-11"><path d="M289.63,53.7a8.26,8.26,0,0,1,.17,2.93A7.82,7.82,0,0,1,289.63,53.7Z" transform="translate(-198.49 -33.41)"/><path d="M293.77,64.75a3.08,3.08,0,0,0-.32,1.07,3.25,3.25,0,0,1,.11-2.71,17.77,17.77,0,0,1,1.68-2.1,3.43,3.43,0,0,0,.49-.95l.07.09a2.24,2.24,0,0,1-.35,2.5A18.85,18.85,0,0,0,293.77,64.75Z" transform="translate(-198.49 -33.41)"/><path d="M242.61,62.17c1.47,1.12,3.14,2,4.61,3.1a7.54,7.54,0,0,1,2.09,2.3c1.31,2.42.65,5.89,2.79,7.62s5,.53,7.14-.79,4.72-2.87,7.13-2S269.79,75.93,272,77c1.93,1,4.27.5,6.28-.28A22.36,22.36,0,0,0,284.53,73a7.94,7.94,0,0,1,2.05-1.45c1.65-.67,3.51,0,5.09.83s3.22,1.77,5,1.66a4.51,4.51,0,0,0,4-4,3.18,3.18,0,0,1,.21.86,4.48,4.48,0,0,1-4,4.75c-1.78.11-3.41-.85-5-1.66s-3.45-1.5-5.1-.83a8.18,8.18,0,0,0-2,1.45,23,23,0,0,1-6.29,3.73c-2,.78-4.36,1.26-6.28.28-2.18-1.11-3.29-3.82-5.6-4.64s-4.93.71-7.12,2-5.15,2.39-7.14.79c-2.15-1.73-1.49-5.2-2.8-7.62a7.3,7.3,0,0,0-2.09-2.3c-1.46-1.14-3.13-2-4.61-3.1a7.65,7.65,0,0,1-3.15-4.42,5.09,5.09,0,0,1-.1-1.17A8.1,8.1,0,0,0,242.61,62.17Z" transform="translate(-198.49 -33.41)"/></g><path class="cls-12" d="M246.52,112.32l-3.31.71s3.27,5.37,8.3,1.85S246.52,112.32,246.52,112.32Z" transform="translate(-198.49 -33.41)"/><path class="cls-5" d="M246.52,112.32l-3.31.71s3.27,5.37,8.3,1.85S246.52,112.32,246.52,112.32Z" transform="translate(-198.49 -33.41)"/><path class="cls-9" d="M318.42,162.31s4.59,2.37,8.87,5.12c3.07,2,6,4.12,6.93,5.74,2.28,3.87,13.35,8.05,13.35,8.05l11,8.37c2.59.86,5.11,4,6.14,5.41.32.43.49.7.49.7l4.41-.57,2.32-3s.59-6.65-4-6.57a6.61,6.61,0,0,1-2.58-.66c-4.92-2.18-11.81-9-11.81-9s-11.71-14.63-15.21-15.11a5.92,5.92,0,0,1-1.1-.28c-3.56-1.25-8.66-5.84-8.66-5.84Z" transform="translate(-198.49 -33.41)"/><path class="cls-9" d="M273,204.58c1.16,7,6.49,20.44,8.2,23.24,2.12,3.47,3.24,10.41,3.24,10.41l.62,4.82a5.8,5.8,0,0,0,.69,1.93c.19.34.39.68.61,1l8.82-2.71s-.51-2-1.28-4.36-1.93-5.25-3-6.33c-2.15-2.12-2.48-9.58-2.48-9.58s-1.79-14.36-2.34-16.16a24.43,24.43,0,0,1-1-5.3c-.08-1-.14-2.06-.15-3.31a68.37,68.37,0,0,0-1.39-10.66l-10.29,1.87L273,200.93A7.64,7.64,0,0,0,273,204.58Z" transform="translate(-198.49 -33.41)"/><path class="cls-5" d="M364.7,195c.32.43.49.7.49.7l4.41-.57,2.32-3s.59-6.65-4-6.57a6.61,6.61,0,0,1-2.58-.66c-.37,2,1.86,3.64,1.86,3.64s.92.67.7,3.8C367.77,194.45,365.88,194.9,364.7,195Z" transform="translate(-198.49 -33.41)"/><path class="cls-10" d="M364.22,195.41c.29,1.07,3.07,2.65,5,3.63.95.49,1.69.83,1.84.9.45.22,2.78-2.38,3.1-4.47s5.89-8.62,5.89-8.62a23.33,23.33,0,0,0,2.07-8.16c.21-2.85-1-3.07-2.37-2.43a9.39,9.39,0,0,0-2.65,2.08,7,7,0,0,1-3.42,1.77,16.76,16.76,0,0,0-4.94,2.11c-1.35.87-2.66,1.93-2.9,2.87-.51,2,1.83,3.79,1.83,3.79s.92.68.71,3.8S364.19,195.31,364.22,195.41Z" transform="translate(-198.49 -33.41)"/><path class="cls-5" d="M369.22,199c.95.49,1.69.83,1.84.9.45.22,2.78-2.38,3.1-4.47s5.89-8.62,5.89-8.62a23.33,23.33,0,0,0,2.07-8.16c.21-2.85-1-3.07-2.37-2.43-.23,2.26-.8,6.65-2,8.94C376.41,187.92,370.77,196.67,369.22,199Z" transform="translate(-198.49 -33.41)"/><path class="cls-5" d="M285.86,244.76a.89.89,0,0,1-.08.17c.19.34.39.68.61,1l8.82-2.71s-.51-2-1.28-4.36c-3.49-1-8.49,5.13-8.49,5.13Z" transform="translate(-198.49 -33.41)"/><path class="cls-10" d="M285.3,251.33s7.35,2.58,10.67,2.18c2.51-.3,2.62-1.47,2.45-3.87-.06-.76-.14-1.65-.18-2.68-.17-4.25-1.88-5.1-1.88-5.1-2.8-7.35-10.87,2.51-10.87,2.51l.43.8a8.77,8.77,0,0,0-.83,4A11.14,11.14,0,0,0,285.3,251.33Z" transform="translate(-198.49 -33.41)"/><path class="cls-5" d="M285.3,251.33s7.35,2.58,10.67,2.18c2.51-.3,2.62-1.47,2.45-3.87a7.77,7.77,0,0,1-6,1.73,23.78,23.78,0,0,1-7.33-2.19A11.11,11.11,0,0,0,285.3,251.33Z" transform="translate(-198.49 -33.41)"/><path class="cls-9" d="M248.77,72.84l2.86,12.59.58,2.59,5.33.67,5.48.7,6-2.17s1.67-5.67.29-9.93a6.27,6.27,0,0,0-2.76-3.64,5.58,5.58,0,0,1-1.15-.9,4.83,4.83,0,0,1-1-1.37,5.8,5.8,0,0,1-.52-2c-.3-3.39,1.85-7.1,1.85-7.1S253.07,58,254.06,60.75c.64,1.81-1.14,5-2.47,6.94-.72,1.08-1.31,1.82-1.31,1.82Z" transform="translate(-198.49 -33.41)"/><circle class="cls-5" cx="260.22" cy="57.02" r="10.99" transform="translate(-53.55 263.77) rotate(-76.72)"/><circle class="cls-9" cx="61.67" cy="23.2" r="10.99"/><path class="cls-7" d="M249.59,114.62c.52,2.42,2.91,6.23,2.91,6.23l15.34,3.77,11-11.44v-.07c-.34-1.07-4.53-14.6-1.5-17.94s2-13.24,2-13.24-5.48-6.31-6.58-7.83-8.22-2.72-8.22-2.72l1,1.37a13.61,13.61,0,0,1,1.75,3.72,5.52,5.52,0,0,1-.15,4,5,5,0,0,0-.37,1c-1.2,5.25-6.66,4.52-8.84,4-.56-.14-.9-.26-.9-.26l-5.23.17-3.28.11s1.49,25.86,1.14,27.92A2.91,2.91,0,0,0,249.59,114.62Z" transform="translate(-198.49 -33.41)"/><path class="cls-13" d="M248.45,86.83,258,85.58h-.18c-.3-.07-.6-.15-.9-.25l-5.23.17-3.28.11S248.41,86,248.45,86.83Z" transform="translate(-198.49 -33.41)"/><polygon class="cls-13" points="60.63 89.1 64.76 90.11 71.25 89.26 72.95 87.49 60.63 89.1"/><polygon class="cls-13" points="67.49 90.78 69.36 91.24 70.13 90.44 67.49 90.78"/><path class="cls-5" d="M249.59,114.62c2.45.25,4.71.37,4.71.37l12.64-.47V101.31A18.83,18.83,0,0,0,261.85,98c-2.2-.76-4.8-3.09-4.31-9.26a8.71,8.71,0,0,1,.11-1.1,16,16,0,0,0,.11-2.07,11.1,11.1,0,0,0-3.5-8.14l-.19-.16L252,67.64a1.84,1.84,0,0,0-.41,0c-.72,1.08-1.31,1.82-1.31,1.82l-1.52,3.33,2.86,12.59-3.28.11s1.49,25.86,1.14,27.92A3,3,0,0,0,249.59,114.62Z" transform="translate(-198.49 -33.41)"/><path class="cls-6" d="M253.89,115l12.64-.47v-13.2A18.78,18.78,0,0,0,261.47,98c-2.33-.81-5.1-3.37-4.2-10.37a11.47,11.47,0,0,0-3.39-10.21l-.19-.16-2.06-9.58a4.49,4.49,0,0,0-3.26,1.87,8.88,8.88,0,0,1-.76,1.06,2,2,0,0,1-2.54.76c-1.33-.59-7.06-3-8.35-.64s-1.53,16.52-1.53,16.52a10.83,10.83,0,0,1,3.72,6.12c.88,4,2.35,4.14,2.35,4.14l1.58,11.6s1.44,2.52.37,3.91" transform="translate(-198.49 -33.41)"/><path class="cls-14" d="M247.61,70.62l2.15,6.45,4.12.36-.19-.16-2.06-9.58a4.49,4.49,0,0,0-3.26,1.87A8.88,8.88,0,0,1,247.61,70.62Z" transform="translate(-198.49 -33.41)"/><path class="cls-5" d="M216.59,58.77l.27,2.1L226,62.16s.75-.56,1.92-1.32c-1-.22-5.5-1.21-7.88-2-.87-.27-1.46-.5-1.48-.66s.06-.18.2-.3Z" transform="translate(-198.49 -33.41)"/><path class="cls-6" d="M205.88,72.39s10.34,7.85,16.75,9.12c0,0,9,2.67,12.56,5.75l3.89-14.89-2.31-1.63s-2.83,1.75-5.27,1.17-5.12-.92-5.12-.92a40.32,40.32,0,0,0-6.56-1.8c-1.74-.14-1-2.4.7-3.6a6.51,6.51,0,0,1,.73-.41,2.23,2.23,0,0,0,2.93.66,6.56,6.56,0,0,0,1.7-1.58h0a20.91,20.91,0,0,0,1.92-2.91s-5.39-1.15-8.08-2c-.87-.27-1.46-.5-1.48-.65-.08-.62,4.81-2.57,4.81-2.57s-4.19-2-5.89-.56c0,0,1.09.83.21,1.64s-11.62,9.05-11.62,9.05S200.42,68.87,205.88,72.39Z" transform="translate(-198.49 -33.41)"/><path class="cls-5" d="M214.77,64.77l5.72.82a6.51,6.51,0,0,1,.73-.41,2.23,2.23,0,0,0,2.93.66,6.56,6.56,0,0,0,1.7-1.58h0a21.55,21.55,0,0,0,1.57-2.44s-5.4-1.16-8.08-2Z" transform="translate(-198.49 -33.41)"/><path class="cls-14" d="M215.1,64.31l6.1.87a2.23,2.23,0,0,0,2.93.66c1.75-1,3.62-4.5,3.62-4.5s-5.39-1.15-8.08-2Z" transform="translate(-198.49 -33.41)"/><path class="cls-5" d="M328.57,154.63l-10.15,7.68s4.59,2.37,8.87,5.12c3.74-2.53,7.27-4.86,9.94-7C333.67,159.22,328.57,154.63,328.57,154.63Z" transform="translate(-198.49 -33.41)"/><path class="cls-5" d="M273,204.58a34.62,34.62,0,0,0,7.44-1.78s1.87-.41,4.65-1.34c-.08-1-.14-2.06-.15-3.31a68.37,68.37,0,0,0-1.39-10.66l-10.29,1.87L273,200.85A7.72,7.72,0,0,0,273,204.58Z" transform="translate(-198.49 -33.41)"/><path class="cls-6" d="M254.69,157.91c2.08,3.07,7.73,16.07,7.73,16.07a54.46,54.46,0,0,0,4.3,6.63c2.25,2.84,3.81,9.2,5.52,14.29s-.51,4.13-.26,6.81,9.9-.77,9.9-.77,19.76-4.35,25.79-16.4,30.14-23,35-29.79-1.39-4-1.14-7.66-2.55-6.76-2.55-6.76-9.09-2.56-10.57-4.35-8.74-6.26-8.74-6.26-6.84-3-7.71-4-9-4.24-11.47-4.86-4.92-4.15-4.92-4.15-1.54.2-3.81-2S280,110.62,280,110.62c-16.27,11.92-27.5,10.22-27.5,10.22l-.26,2.26C243.59,134.35,252.63,154.85,254.69,157.91Z" transform="translate(-198.49 -33.41)"/><path class="cls-5" d="M252.24,123.11s14,4.63,27.76-12.48c-16.27,11.92-27.5,10.22-27.5,10.22Z" transform="translate(-198.49 -33.41)"/><path class="cls-5" d="M276.42,131.11s18.87,27.23,20,28.23S277.41,130.77,276.42,131.11Z" transform="translate(-198.49 -33.41)"/><path class="cls-5" d="M267.7,129s13.07,20.29,12.8,23C280.5,152,267.85,132.54,267.7,129Z" transform="translate(-198.49 -33.41)"/><path class="cls-5" d="M260.09,134.59s2.41,11.35-1.22,17.77Z" transform="translate(-198.49 -33.41)"/><path class="cls-5" d="M255.07,135.25s-.16,9.81-1.26,11.83Z" transform="translate(-198.49 -33.41)"/><polygon class="cls-5" points="88.58 93.08 105.93 99.88 99.58 100.71 88.58 93.08"/><path class="cls-5" d="M252.91,50.51c.87.57,1.59,1.5,2.62,1.63a4.06,4.06,0,0,0,2.13-.53c1.73-.75,3.69-1.33,5.48-.74,2.55.85,3.95,3.78,6.49,4.65a4.47,4.47,0,0,0,5.8-3.17,5.7,5.7,0,0,0-2-5.35A11.89,11.89,0,0,0,268,44.55c-5.1-1.13-10.4-.75-15.61-.36a2.28,2.28,0,0,0-1.22.32c-.79.59-2.14,3.56-1.86,4.56C249.77,50.41,252.77,49.39,252.91,50.51Z" transform="translate(-198.49 -33.41)"/><path class="cls-10" d="M252.85,50.1c.87.57,1.59,1.5,2.63,1.63a4.06,4.06,0,0,0,2.13-.53c1.73-.75,3.69-1.33,5.47-.74,2.55.85,3.95,3.78,6.5,4.65a4.53,4.53,0,0,0,3.8-.42,4.41,4.41,0,0,0,2-2.75,5.7,5.7,0,0,0-2-5.35,11.88,11.88,0,0,0-5.4-2.45c-5.1-1.13-10.4-.75-15.6-.36a2.28,2.28,0,0,0-1.22.32c-.79.59-2.15,3.56-1.86,4.56C249.68,50,252.71,49,252.85,50.1Z" transform="translate(-198.49 -33.41)"/><path class="cls-9" d="M320.05,58.19l1.66,6.71,2.16-1.3,11.7-7.07s8.86-.32,9.55-7.45-9.85-.07-10.41.48a23.4,23.4,0,0,1-1.84,1.49L322,57.12Z" transform="translate(-198.49 -33.41)"/><path class="cls-5" d="M320.05,58.19l1.66,6.71,2.16-1.3c-.48-3-1.22-5.83-1.9-6.48Z" transform="translate(-198.49 -33.41)"/><path class="cls-5" d="M262.28,102.07l2.38,14,14.12-3c-.34-1.07-4.53-14.6-1.5-17.94s2-13.24,2-13.24-5.48-6.31-6.58-7.83-8.22-2.72-8.22-2.72a5.8,5.8,0,0,1-.52-2,8.05,8.05,0,0,0-.54,1.49c0,2.56,1,4.31,3.77,5.6l.76.33c.43.17.9.33,1.4.49l.23.07c4.55,1.35,5.53,4.07,5.53,4.07a10.34,10.34,0,0,1,2.07,7.34C276.67,93.11,262.28,102.07,262.28,102.07Z" transform="translate(-198.49 -33.41)"/><path class="cls-6" d="M263.1,102l2.38,14,15.89-3.32s-.48-5.29-1.59-7.44-.89-10.51-.89-10.51c6.76-7.28,3.21-13.21,3.21-13.21s19.86-3.21,20.2-3.81,7-4.18,7-4.18,7.2-1.84,8.17-2.87a9.19,9.19,0,0,1,1.18-1.07,2.59,2.59,0,0,1,.39-.25l.53,4.59h.2a6.44,6.44,0,0,0,3.2-1.26c1.64-1.26-.43-15-2-15.51a1.79,1.79,0,0,0-.92,0A10,10,0,0,0,316.62,59l-.27.22-.1.08s-9,3.53-10.79,5.15-15.78,3.69-15.78,3.69-6.27,1.48-7.08.58-10.38-2.36-11.18-1-3,1.16-3,1.16c-1.58-1.81-2.67-1.11-3.34-.07a7.2,7.2,0,0,0-.84,2c0,2.79,1.22,4.61,4.53,5.93a15.34,15.34,0,0,0,1.63.56c4.55,1.35,5.53,4.07,5.53,4.07A10.38,10.38,0,0,1,278,88.71C277.49,93,263.1,102,263.1,102Z" transform="translate(-198.49 -33.41)"/><path class="cls-5" d="M320,57.1a1.46,1.46,0,0,1,.51,0c1.59.49,3.66,14.25,2,15.51a6.4,6.4,0,0,1-2.79,1.21h-.24L319,69.23a2.59,2.59,0,0,0-.39.25v-.19a12,12,0,0,0-2.26-10.19Z" transform="translate(-198.49 -33.41)"/><path class="cls-14" d="M319,69.3l.53,4.59A6.41,6.41,0,0,0,323,72.61c1.64-1.26-.43-15-2-15.51-1.26-.39-3.47,1.18-4.35,1.85A11.94,11.94,0,0,1,319,69.3Z" transform="translate(-198.49 -33.41)"/><path class="cls-14" d="M268.77,76.69l2.28-2.15-6-5.79a7.2,7.2,0,0,0-.84,2C264.21,73.55,265.42,75.37,268.77,76.69Z" transform="translate(-198.49 -33.41)"/><path class="cls-5" d="M252.77,49.28c.87.57,1.59,1.5,2.62,1.63a4.06,4.06,0,0,0,2.13-.53c1.73-.75,3.69-1.33,5.48-.74,2.55.85,4,3.78,6.49,4.65a4.43,4.43,0,0,0,5.91-4.39,4.81,4.81,0,0,1,0,2A4.41,4.41,0,0,1,272,55.2a4.56,4.56,0,0,1-2.43-.13c-2.55-.87-3.95-3.8-6.49-4.65-1.79-.59-3.75,0-5.48.74a4.06,4.06,0,0,1-2.13.53c-1-.13-1.76-1.06-2.63-1.63-.14-1.12-3.16-.1-3.54-1.44a1.57,1.57,0,0,1,0-.61C249.91,49.07,252.61,48.23,252.77,49.28Z" transform="translate(-198.49 -33.41)"/><path class="cls-5" d="M262.14,80.89s-1.27,3.56.34,4.75c0,0-1.76-4.7-2.79-4.6" transform="translate(-198.49 -33.41)"/><path class="cls-9" d="M340.77,46.28s-8.17,7.06-2.27,8.19S340.77,46.28,340.77,46.28Z" transform="translate(-198.49 -33.41)"/><polygon class="cls-2" points="110.44 18.75 112.01 60.1 157.49 18.75 110.44 18.75"/><polygon class="cls-15" points="110.44 18.75 112.01 60.1 157.49 18.75 110.44 18.75"/></svg>