<svg id="acbdcde3-a4fd-43c9-b2e2-23268a62f9b0" xmlns="http://www.w3.org/2000/svg" viewBox="0 0 804 697.68"><defs><style>.cls-1{fill:#cacaca;}.cls-2{fill:#fff;}.cls-3{fill:#222121;}.cls-4{fill:#771d42;}.cls-5{fill:#a0616a;}.cls-6{fill:#e6e6e6;}.cls-7{fill:#f2f2f2;}</style></defs><title>destaque3</title><path id="e9a96f1c-287a-42d8-bbee-a97ef2edbe89" class="cls-1" d="M669.82,165.28H666V60.59A60.6,60.6,0,0,0,605.4,0H383.6A60.6,60.6,0,0,0,323,60.59h0V634.94a60.6,60.6,0,0,0,60.6,60.59H605.4A60.59,60.59,0,0,0,666,634.94V239.8h3.83Z"/><path id="bb6cf65b-d1a0-4b47-beae-738e5a961a87" class="cls-2" d="M607.85,15.76h-29A21.52,21.52,0,0,1,559,45.38H431.92A21.5,21.5,0,0,1,412,15.76H385A45.25,45.25,0,0,0,339.72,61V634.52A45.25,45.25,0,0,0,385,679.77H607.85a45.25,45.25,0,0,0,45.25-45.25h0V61A45.25,45.25,0,0,0,607.85,15.76Z"/><path class="cls-3" d="M429,149.53a8.61,8.61,0,0,1-6.42-2.8,10.71,10.71,0,0,1-2.55-8.21,12.43,12.43,0,0,1,3.33-7.48,10,10,0,0,1,7.24-3.21,9,9,0,0,1,6.72,3,10.51,10.51,0,0,1,2.59,8h0a11.91,11.91,0,0,1-3.6,7.84A10.58,10.58,0,0,1,429,149.53Zm1.6-18.08c-3.54,0-6.6,3.25-7,7.39a7.08,7.08,0,0,0,1.6,5.45,4.94,4.94,0,0,0,3.76,1.62c3.31,0,6.85-2.28,7.31-7.39a6.88,6.88,0,0,0-1.66-5.28A5.4,5.4,0,0,0,430.59,131.45Zm7.51,7.23Z"/><path class="cls-3" d="M429.11,160.38A19.73,19.73,0,0,1,409.06,141a20.1,20.1,0,0,1,.12-2.45A23.94,23.94,0,0,1,432.62,117c6.51,0,11.86,2.09,15.49,6,3.43,3.76,5,9,4.53,14.88-.49,5.53-2.84,8.41-4.72,9.85a7.93,7.93,0,0,1-6,1.72c-3-.53-6.27-3.23-5.75-9.11l1-10.88a1.81,1.81,0,0,1,3.6.32l-1,10.87c-.25,2.93.78,4.89,2.78,5.24a4.36,4.36,0,0,0,3.17-1c1.31-1,2.94-3.08,3.31-7.3.43-4.89-.81-9.07-3.59-12.11s-7.36-4.88-12.82-4.88a20.33,20.33,0,0,0-19.84,18.24A16.11,16.11,0,0,0,427,156.66a15.19,15.19,0,0,0,2.13.1,18,18,0,0,0,8.26-1.5,1.81,1.81,0,0,1,1.4,3.34A21.8,21.8,0,0,1,429.11,160.38Z"/><path class="cls-3" d="M410,418.81a1.81,1.81,0,0,1-1.28-3.09L420.5,404a1.8,1.8,0,0,1,2.55,2.55L411.3,418.28A1.81,1.81,0,0,1,410,418.81Zm29.83-4.52a1.81,1.81,0,0,1-1.27-3.09l9.94-9.94a1.81,1.81,0,0,1,2.56,2.55l-9.95,9.95a1.81,1.81,0,0,1-1.28.53Zm-5.42,0a1.81,1.81,0,0,1-1.28-.53l-7.23-7.24a1.81,1.81,0,1,1,2.54-2.57l0,0,7.23,7.23a1.82,1.82,0,0,1,0,2.56A1.85,1.85,0,0,1,434.43,414.29Z"/><path class="cls-3" d="M452.51,404.34a4.52,4.52,0,1,1,4.52-4.52A4.52,4.52,0,0,1,452.51,404.34Zm0-5.42a.91.91,0,1,0,.9.9h0A.9.9,0,0,0,452.51,398.92Z"/><path class="cls-3" d="M437.14,419.71a4.52,4.52,0,1,1,4.52-4.52A4.52,4.52,0,0,1,437.14,419.71Zm0-5.42a.9.9,0,1,0,.91.9h0a.9.9,0,0,0-.91-.9Z"/><path class="cls-3" d="M424.49,407.05a4.52,4.52,0,1,1,4.52-4.52A4.52,4.52,0,0,1,424.49,407.05Zm0-5.42a.91.91,0,1,0,.9.9h0A.9.9,0,0,0,424.49,401.63Z"/><path class="cls-3" d="M407.31,424.23a4.52,4.52,0,1,1,4.52-4.52A4.52,4.52,0,0,1,407.31,424.23Zm0-5.42a.9.9,0,1,0,.9.9h0A.9.9,0,0,0,407.31,418.81Z"/><path class="cls-3" d="M578.89,563.65h-38a6.32,6.32,0,0,1-6.33-6.32V530.21a6.32,6.32,0,0,1,6.33-6.33h38a6.32,6.32,0,0,1,6.33,6.33v27.12A6.32,6.32,0,0,1,578.89,563.65Zm-38-36.16a2.74,2.74,0,0,0-2.72,2.72v27.12a2.73,2.73,0,0,0,2.72,2.71h38a2.73,2.73,0,0,0,2.72-2.71V530.21a2.74,2.74,0,0,0-2.72-2.72Z"/><path class="cls-3" d="M559.91,547.38a1.8,1.8,0,0,1-1.11-.38l-16.27-12.66a1.8,1.8,0,1,1,2.21-2.85h0l15.16,11.79,15.16-11.79a1.81,1.81,0,0,1,2.23,2.85h0L561,547A1.8,1.8,0,0,1,559.91,547.38Z"/><path class="cls-1" d="M763.83,588.68l-209.14.09a1,1,0,0,1,0-2l209.14-.09a1,1,0,0,1,0,2Z"/><circle class="cls-4" cx="761.05" cy="587.68" r="14"/><path class="cls-1" d="M758.83,320.68l-211.14.09a1,1,0,0,1,0-2l211.14-.09a1,1,0,0,1,0,2Z"/><circle class="cls-4" cx="761.05" cy="320.68" r="14"/><path class="cls-1" d="M218.27,183.68l211.14.09a1,1,0,0,0,0-2l-211.14-.09a1,1,0,0,0,0,2Z"/><circle class="cls-4" cx="216.05" cy="183.68" r="14"/><path class="cls-1" d="M218.27,454.68l211.14.09a1,1,0,1,0,0-2l-211.14-.09a1,1,0,0,0,0,2Z"/><circle class="cls-4" cx="216.05" cy="454.68" r="14"/><path class="cls-1" d="M559.91,588.77a45,45,0,1,1,45-45h0A45.05,45.05,0,0,1,559.91,588.77Zm0-88a43,43,0,1,0,43,43A43,43,0,0,0,559.91,500.77Z"/><path class="cls-1" d="M429.91,454.77a45,45,0,1,1,45-45A45,45,0,0,1,429.91,454.77Zm0-88a43,43,0,1,0,43,43h0a43,43,0,0,0-43-43Z"/><path class="cls-1" d="M550.91,320.77a45,45,0,1,1,45-45A45,45,0,0,1,550.91,320.77Zm0-88a43,43,0,1,0,43,43A43,43,0,0,0,550.91,232.77Z"/><path class="cls-1" d="M430.91,183.68a45,45,0,1,1,45-45h0A45.05,45.05,0,0,1,430.91,183.68Zm0-88a43,43,0,1,0,43,43,43,43,0,0,0-43-43Z"/><path class="cls-5" d="M148.5,488.58a11,11,0,0,1-4.3-7.88,9.74,9.74,0,0,1,0-1.08L97.61,448.26a8.56,8.56,0,0,1-3.34-9.67l22.26-55.3a9.7,9.7,0,0,1,18,7.17l-18,45.69,36.26,32.94a10.31,10.31,0,0,1,1.46-.23,11,11,0,0,1,3,21.77,12,12,0,0,1-2.15.2A10.88,10.88,0,0,1,148.5,488.58Z"/><path class="cls-4" d="M97.63,415.85a4.77,4.77,0,0,1,.1-4l10.62-21.72a13.38,13.38,0,0,1,25.52,8L130,422.09a4.82,4.82,0,0,1-5.52,4,4.34,4.34,0,0,1-.69-.17l-23.18-7.36A4.82,4.82,0,0,1,97.63,415.85Z"/><polygon class="cls-5" points="170.91 683.95 183.17 683.95 189 636.66 170.91 636.66 170.91 683.95"/><path class="cls-3" d="M167.78,680h24.15a15.38,15.38,0,0,1,15.38,15.38h0v.5H167.78Z"/><polygon class="cls-5" points="51.02 675.26 62.9 678.32 80.32 633.97 62.79 629.46 51.02 675.26"/><path class="cls-3" d="M49,670.61l23.39,6h0a15.38,15.38,0,0,1,11.07,18.73h0l-.13.48L45,686Z"/><circle class="cls-5" cx="137.01" cy="334.98" r="24.56"/><path class="cls-4" d="M124.59,437.14a88.81,88.81,0,0,1-14.73-20.23,32.71,32.71,0,0,1-1.54-26.48,33.38,33.38,0,0,1,19-19.34,32.87,32.87,0,0,1,41.61,15.44c6.14,12,8.55,23.79,7.16,35-2.67,21.35-4.23,32.38-4.64,32.79l-.14.14-45.69,2Z"/><path class="cls-3" d="M127.31,450.54l40.88-2a4,4,0,0,1,4.19,3.64L191.18,663a4,4,0,0,1-3.62,4.34l-.44,0-16-.34a4,4,0,0,1-3.8-3L136.83,541a4,4,0,0,0-7.52-.71L71.48,665.88a4,4,0,0,1-4.64,2.2l-16.08-4.2a4,4,0,0,1-2.9-4.69c5.29-25,37-168,76.86-207.53A3.93,3.93,0,0,1,127.31,450.54Z"/><path class="cls-5" d="M204.73,474.21a11,11,0,0,1-6.75-5.92,8.68,8.68,0,0,1-.4-1l-54.53-13.36a8.55,8.55,0,0,1-6.47-7.93l1.8-59.58a9.7,9.7,0,0,1,19.39.51L156.68,436l45.4,18.39a12.27,12.27,0,0,1,1.28-.71h0a11,11,0,1,1,1.37,20.51Z"/><path class="cls-4" d="M132.57,416.11a4.82,4.82,0,0,1-1.26-3.81l2.71-24a13.37,13.37,0,0,1,26.73-1l4.4,23.86a4.83,4.83,0,0,1-3.86,5.61,4.27,4.27,0,0,1-.71.07l-24.31.86A4.8,4.8,0,0,1,132.57,416.11Z"/><path class="cls-3" d="M101.82,367.41l2.57-8.3,1.75,9.31,14.42-.38-.07-9.18,5.48,9.06L139,365c-2.79-3.72-5.62-7.49-7.4-11.87s-2.43-9.53-.77-14c4.13-11,19.75-7.9,28.3-8,2.5,0,5.31-.21,7-2.25,1.23-1.54,1.43-3.73,1.36-5.76-.32-10.46-6.59-20.43-15.47-24.59a24,24,0,0,0-13.9-1.88A25.23,25.23,0,0,0,131,299c-2,1-4.1,3.3-6.25,3.24-1.81-.05-4.2-1.94-6.16-2.26a19.22,19.22,0,0,0-7.13.25,22.33,22.33,0,0,0-12.07,7.23c-6.68,7.76-8.67,19.2-7.5,29.73s5.1,20.43,9,30.16"/><path class="cls-6" d="M803,697.68H1a1,1,0,0,1,0-2H803a1,1,0,0,1,0,2Z"/><path class="cls-7" d="M789.47,685.29a19.34,19.34,0,0,0,6.38-9.6c.81-3.82-.82-8.3-4.45-9.78-4.09-1.57-8.45,1.27-11.76,4.12s-7.1,6.13-11.44,5.51a17.36,17.36,0,0,0,5.33-16.28,6.58,6.58,0,0,0-1.49-3.32c-2.26-2.43-6.38-1.38-9.1.53-8.63,6.07-11,17.79-11.08,28.35-.88-3.81-.14-7.78-.16-11.62s-1.1-8.3-4.38-10.32a13.27,13.27,0,0,0-6.65-1.58c-3.88-.13-8.2.25-10.85,3.09-3.32,3.52-2.44,9.44.43,13.28s7.22,6.31,11.22,9a24.8,24.8,0,0,1,8,7.65,8.26,8.26,0,0,1,.6,1.36h24.32A67.68,67.68,0,0,0,789.47,685.29Z"/><path class="cls-3" d="M536.41,302.2a2.72,2.72,0,0,1-2.48-3.82l3.13-7a23.43,23.43,0,1,1,8.85,4.92l-8,5.41A2.67,2.67,0,0,1,536.41,302.2Zm16.14-48.26a20,20,0,0,0-12.49,35.73l1,.79L537.68,298l7.73-5.23.76.25a20,20,0,1,0,6.38-39.05Z"/><circle class="cls-3" cx="552.55" cy="272.91" r="3.25"/><circle class="cls-3" cx="543.34" cy="272.91" r="3.25"/><circle class="cls-3" cx="561.77" cy="272.91" r="3.25"/></svg>