<svg id="b2448b99-d97f-419e-8dc3-d5510f0392fe" xmlns="http://www.w3.org/2000/svg" viewBox="0 0 709.53 558.59"><defs><style>.cls-1{fill:#cacaca;}.cls-2{fill:#fff;}.cls-3{fill:#771d42;}.cls-4{fill:#ad6179;}.cls-5,.cls-9{fill:#222121;}.cls-6{fill:#ffb8b8;}.cls-7{fill:#2f2e41;}.cls-8{fill:#3f3d56;}.cls-9{opacity:0.3;isolation:isolate;}.cls-10{fill:#ccc;}</style></defs><title>destaque2</title><rect class="cls-1" x="0.27" y="0.37" width="643.86" height="412.36"/><rect class="cls-2" x="18.69" y="52.08" width="607.04" height="336.24"/><rect class="cls-3" width="643.86" height="27.35"/><circle class="cls-2" cx="20.33" cy="13.98" r="5.07"/><circle class="cls-2" cx="39.57" cy="13.98" r="5.07"/><circle class="cls-2" cx="58.81" cy="13.98" r="5.07"/><rect class="cls-4" x="73.84" y="86.97" width="155.98" height="266.47"/><rect class="cls-3" x="256.75" y="86.97" width="129.98" height="73.35"/><rect class="cls-4" x="256.75" y="180.75" width="129.98" height="78.92"/><rect class="cls-4" x="256.75" y="280.09" width="129.98" height="73.35"/><rect class="cls-4" x="414.59" y="86.97" width="155.98" height="116.12"/><rect class="cls-4" x="414.59" y="237.31" width="155.98" height="116.12"/><path class="cls-5" d="M510.48,211.44v-25a33.5,33.5,0,0,1,67,0h0v25a4.51,4.51,0,0,1-4.5,4.5H515A4.5,4.5,0,0,1,510.48,211.44Z"/><polygon class="cls-6" points="593.51 536.79 581.7 540.06 563.46 496.04 580.9 491.21 593.51 536.79"/><path class="cls-5" d="M572.32,539l22.79-6.31h0l4,14.35h0L562,557.33h0A14.87,14.87,0,0,1,572.32,539Z"/><polygon class="cls-6" points="470.33 545.88 458.07 545.88 452.24 498.59 470.33 498.59 470.33 545.88"/><path class="cls-5" d="M449.31,542.37H473v14.89H434.42A14.89,14.89,0,0,1,449.31,542.37Z"/><path class="cls-6" d="M455.54,281.6a10.06,10.06,0,0,0,14.07,2.09,9.86,9.86,0,0,0,1.33-1.17l32.59,14.65-3-18.33-30.49-11.11a10.11,10.11,0,0,0-14.53,13.87Z"/><path class="cls-7" d="M523.26,391.84c-10.24,0-20.84-1.53-29.75-6.07a38.43,38.43,0,0,1-19.71-23.56c-4.64-14.7,1.21-29.14,6.87-43.11,3.51-8.65,6.82-16.82,7.68-24.88l.3-2.86c1.34-12.85,2.5-23.94,8.9-28.11,3.32-2.15,7.78-2.28,13.64-.37l55.05,17.88-2,104.49-.33.11C563.59,385.46,544.18,391.84,523.26,391.84Z"/><path class="cls-3" d="M510.23,230.35s27-8,48-5c0,0-12,66-8,88s-69.5,8.5-54.5-12.5l5-25s-10-10-1-22Z"/><path class="cls-5" d="M497,389.86l-33.28-6.24,11.62-89.41c.78-2.5,18.78-59.14,26.95-62.21A139.8,139.8,0,0,1,520.41,227l1.18-.23-6.67,10-26.57,63.65Z"/><path class="cls-5" d="M479.61,534.92l-43-7.17,24.13-98.52,35.91-134.74.35,2.39c0,.18,3.38,17.78,53.15,10l.44-.06.12.42,60.15,212.54-49,8.16L517.19,372.85Z"/><path class="cls-5" d="M539.2,406.59l0-.76c0-.84,3-84.37,2-118s9.92-62.9,10-63.19l.09-.23.24-.07c14.12-4,26.37,8,26.49,8.12l.17.18-4,33.17,17.22,120.64Z"/><circle class="cls-6" cx="537.09" cy="190.8" r="24.56"/><path class="cls-5" d="M502.55,188.44a26.53,26.53,0,0,1,26.5-26.5h5a26.53,26.53,0,0,1,26.5,26.5v.5H550l-3.61-10.09-.72,10.09H540.2l-1.82-5.09-.36,5.09H502.55Z"/><path class="cls-5" d="M534.68,218.75a4.44,4.44,0,0,1-.35-4.71c5.29-10.07,12.71-28.7,2.87-40.18l-.71-.83h28.58V216l-26,4.59a5.4,5.4,0,0,1-.8.07A4.46,4.46,0,0,1,534.68,218.75Z"/><path class="cls-8" d="M419.58,41.55A135,135,0,1,0,427.24,241L592.85,380.7a12.45,12.45,0,1,0,16.07-19h0L443.28,221.93A135,135,0,0,0,419.58,41.55ZM408.9,208.47A101.16,101.16,0,1,1,396.83,65.93h0A101.14,101.14,0,0,1,408.9,208.47Z"/><path class="cls-9" d="M266.36,220.55a101.16,101.16,0,0,1-17.17-136q-2.9,2.93-5.61,6.12A101.16,101.16,0,1,0,398.2,221.15c1.81-2.13,3.5-4.32,5.09-6.56A101.15,101.15,0,0,1,266.36,220.55Z"/><path class="cls-6" d="M545,324.54a10.07,10.07,0,0,0,12.16-7.38,9.59,9.59,0,0,0,.26-1.76l34.44-9.55-14-12.21-30.55,10.95a10.11,10.11,0,0,0-2.31,20Z"/><path class="cls-5" d="M559.29,319.48l-2.09-19.91L586,283.7,567.21,261l3.06-25.5,7.62-3.26.23.3c3.6,4.62,35.11,45.28,35.11,50.31s-6,20.32-14.28,24.45c-8,4-37.83,11.7-39.1,12Z"/><path class="cls-10" d="M708.53,558.59h-381a1,1,0,0,1,0-2h381a1,1,0,0,1,0,2Z"/></svg>