<svg id="Camada_1" data-name="Camada 1" xmlns="http://www.w3.org/2000/svg" viewBox="0 0 168.69 212.55"><defs><style>.cls-1{fill:#fff;}.cls-2{fill:#232323;opacity:0.1;isolation:isolate;}.cls-3{fill:#965069;}.cls-4{fill:#ad6179;}.cls-5{fill:#771d42;}</style></defs><title>paperplane</title><g id="paperplane"><path id="Caminho_269" data-name="Caminho 269" class="cls-1" d="M112.43,212.54h-.05c-2.49-.1-5-.31-7.44-.63a1.38,1.38,0,1,1,.36-2.73c2.37.31,4.78.52,7.19.61a1.38,1.38,0,0,1-.06,2.76Zm7.34,0a1.38,1.38,0,0,1-.06-2.75c2.37-.12,4.79-.34,7.2-.66a1.38,1.38,0,1,1,.42,2.72h-.06c-2.48.33-5,.56-7.43.68Zm-21.88-1.9-.31,0c-2.41-.56-4.83-1.24-7.19-2a1.38,1.38,0,0,1,.8-2.64l.07,0c2.28.75,4.61,1.41,6.94,1.94a1.38,1.38,0,0,1-.3,2.72Zm36.43,0a1.37,1.37,0,0,1-.29-2.72c2.33-.5,4.7-1.1,7-1.79a1.38,1.38,0,0,1,.77,2.64c-2.38.7-4.81,1.33-7.21,1.84l-.29,0Zm14.08-4.13a1.38,1.38,0,0,1-.48-2.67c2.25-.84,4.5-1.77,6.7-2.76a1.38,1.38,0,1,1,1.19,2.48l-.05,0c-2.26,1-4.57,2-6.88,2.83a1.28,1.28,0,0,1-.48.09ZM84,206a1.24,1.24,0,0,1-.54-.11c-2.23-1-4.49-2-6.73-3.18a1.38,1.38,0,0,1,1.21-2.48l0,0c2.18,1.13,4.39,2.17,6.55,3.1A1.38,1.38,0,0,1,84,206Zm77.82-5.62a1.38,1.38,0,0,1-.66-2.59c1.94-1.05,3.78-2.13,5.48-3.22a1.38,1.38,0,0,1,1.48,2.32c-1.75,1.13-3.66,2.24-5.65,3.32a1.25,1.25,0,0,1-.65.16Zm-90.87-1.11a1.36,1.36,0,0,1-.71-.2C68.07,197.78,66,196.41,64,195a1.38,1.38,0,0,1,1.59-2.25c2,1.38,4,2.71,6.07,4a1.38,1.38,0,0,1-.72,2.56Zm-12-8.48a1.36,1.36,0,0,1-.88-.32c-1.86-1.54-3.65-3.13-5.32-4.74a1.4,1.4,0,0,1,1.44-2.4,61.14,61.14,0,0,0,6.74,1.13,1.38,1.38,0,1,1-.25,2.74h0c-.85-.1-1.71-.21-2.56-.34.58.5,1.16,1,1.76,1.49A1.38,1.38,0,0,1,60,190.3a1.39,1.39,0,0,1-1.06.5Zm9.15-3.21a1.37,1.37,0,0,1-1.38-1.37,1.39,1.39,0,0,1,1.37-1.39,55.29,55.29,0,0,0,5.76-.33l1.42-.15a1.37,1.37,0,1,1,.38,2.72h-.06l-1.4.16q-3.06.31-6.08.35Zm14.59-1.7a1.37,1.37,0,0,1-1.37-1.38,1.39,1.39,0,0,1,1.09-1.35c2.4-.5,4.75-1.11,7-1.8a1.38,1.38,0,0,1,.81,2.64c-2.32.71-4.76,1.34-7.24,1.86a1.36,1.36,0,0,1-.29,0Zm-36.2-1.95a1.38,1.38,0,0,1-.45-.08A66.32,66.32,0,0,1,39.09,181a1.36,1.36,0,0,1-.63-1.84,1.38,1.38,0,0,1,1.82-.64,64,64,0,0,0,6.64,2.75,1.38,1.38,0,0,1-.46,2.68Zm50.22-2.41a1.37,1.37,0,0,1-.54-2.64,54.72,54.72,0,0,0,6.39-3.24A1.38,1.38,0,0,1,104,178l0,0a57.83,57.83,0,0,1-6.71,3.4,1.4,1.4,0,0,1-.53.11Zm-48.23-1a1.38,1.38,0,0,1-1.06-.49,65.65,65.65,0,0,1-4.49-6,1.38,1.38,0,1,1,2.23-1.62.41.41,0,0,1,.07.11,61.87,61.87,0,0,0,4.3,5.75,1.37,1.37,0,0,1-1.06,2.26Zm-15.2-2.92a1.35,1.35,0,0,1-.73-.21,70.07,70.07,0,0,1-6.14-4.27A1.38,1.38,0,1,1,28.07,171a66.73,66.73,0,0,0,5.9,4.1,1.38,1.38,0,0,1-.72,2.55Zm76-3.62a1.38,1.38,0,0,1-1.38-1.38,1.4,1.4,0,0,1,.49-1.06,35.66,35.66,0,0,0,5-5,1.38,1.38,0,1,1,2.15,1.73,38.86,38.86,0,0,1-5.32,5.41,1.39,1.39,0,0,1-.89.32Zm-87.56-5.37a1.42,1.42,0,0,1-1-.38,69.62,69.62,0,0,1-5.1-5.48A1.37,1.37,0,0,1,17.72,161a65.73,65.73,0,0,0,4.9,5.25,1.38,1.38,0,0,1-1,2.37Zm18.81-.37a1.39,1.39,0,0,1-1.25-.8,43.84,43.84,0,0,1-2.6-7.11,1.38,1.38,0,0,1,2.66-.71,41.38,41.38,0,0,0,2.44,6.65,1.38,1.38,0,0,1-.67,1.83,1.29,1.29,0,0,1-.58.13Zm77.83-5.65a1.38,1.38,0,0,1-1.38-1.38,1.31,1.31,0,0,1,.15-.61,32.86,32.86,0,0,0,2.3-6.21l.1-.39a1.38,1.38,0,0,1,2.67.67l-.1.41a35.22,35.22,0,0,1-2.5,6.74,1.37,1.37,0,0,1-1.24.76Zm-106-5.23a1.34,1.34,0,0,1-1.14-.61,65.54,65.54,0,0,1-3.78-6.48A1.38,1.38,0,0,1,9.8,149a62.7,62.7,0,0,0,3.62,6.2,1.37,1.37,0,0,1-.39,1.91,1.36,1.36,0,0,1-.76.23Zm24.48-3.23a1.38,1.38,0,0,1-1.37-1.28c-.05-.79-.08-1.58-.08-2.37a38.14,38.14,0,0,1,.38-5.24,1.38,1.38,0,0,1,2.73.39,34.29,34.29,0,0,0-.35,4.85c0,.73,0,1.46.07,2.19a1.37,1.37,0,0,1-1.28,1.46h-.1Zm85.11-5.68h-.06a1.38,1.38,0,0,1-1.32-1.43c0-.54,0-1.07,0-1.6a38.74,38.74,0,0,0-.39-5.48,1.38,1.38,0,0,1,2.72-.44v.06a41,41,0,0,1,.42,5.86c0,.57,0,1.14,0,1.71a1.38,1.38,0,0,1-1.37,1.32ZM5.62,144.32a1.38,1.38,0,0,1-1.29-.9,68.17,68.17,0,0,1-2.22-7.16,1.37,1.37,0,1,1,2.65-.73.14.14,0,0,1,0,.06,64.84,64.84,0,0,0,2.13,6.86,1.38,1.38,0,0,1-.8,1.78,1.62,1.62,0,0,1-.49.08Zm33.15-4.62a1.38,1.38,0,0,1-1.37-1.39,1.29,1.29,0,0,1,.07-.43,49.49,49.49,0,0,1,3-6.94,1.38,1.38,0,0,1,2.44,1.27,47.3,47.3,0,0,0-2.81,6.55,1.37,1.37,0,0,1-1.31.93Zm81.06-5.7a1.37,1.37,0,0,1-1.31-1,44.34,44.34,0,0,0-2.72-6.57,1.38,1.38,0,0,1,2.45-1.26,46.76,46.76,0,0,1,2.89,7,1.36,1.36,0,0,1-.89,1.73A1.48,1.48,0,0,1,119.83,134ZM2,130.11a1.39,1.39,0,0,1-1.36-1.19A74.15,74.15,0,0,1,0,121.47a1.38,1.38,0,0,1,2.75-.11h0a72,72,0,0,0,.65,7.18,1.38,1.38,0,0,1-1.18,1.55l-.19,0Zm43.45-3.42a1.37,1.37,0,0,1-1.37-1.38,1.4,1.4,0,0,1,.25-.79,58.91,58.91,0,0,1,4.71-5.86,1.38,1.38,0,0,1,2.07,1.82l0,0a57.38,57.38,0,0,0-4.49,5.58,1.34,1.34,0,0,1-1.12.58ZM113.17,121a1.38,1.38,0,0,1-1.11-.56,43.36,43.36,0,0,0-4.65-5.38,1.38,1.38,0,0,1,1.92-2,45.64,45.64,0,0,1,5,5.72,1.37,1.37,0,0,1-1.11,2.19Zm-57.8-5.1A1.38,1.38,0,0,1,54,114.49a1.4,1.4,0,0,1,.49-1A58.63,58.63,0,0,1,60.53,109,1.38,1.38,0,0,1,62,111.28l0,0a52.89,52.89,0,0,0-5.75,4.24,1.38,1.38,0,0,1-.89.33Zm-53.93-.41H1.36A1.38,1.38,0,0,1,.06,114h0a74.5,74.5,0,0,1,.8-7.44,1.38,1.38,0,0,1,2.72.44q-.56,3.56-.77,7.16a1.37,1.37,0,0,1-1.37,1.29Zm101.26-4.68a1.38,1.38,0,0,1-.77-.24,35.81,35.81,0,0,0-6.2-3.38,1.37,1.37,0,1,1,1.06-2.53,37.87,37.87,0,0,1,6.68,3.63,1.38,1.38,0,0,1-.77,2.52Zm-35-2.73a1.38,1.38,0,0,1-1.38-1.38,1.4,1.4,0,0,1,.82-1.26A43.59,43.59,0,0,1,74.35,103a1.38,1.38,0,0,1,.65,2.68h0a40.8,40.8,0,0,0-6.71,2.28,1.15,1.15,0,0,1-.55.11Zm21.5-2.87a1.07,1.07,0,0,1-.25,0,32.49,32.49,0,0,0-5.74-.51c-.39,0-.85,0-1.27,0a1.38,1.38,0,0,1-.11-2.75c.46,0,.95,0,1.38,0a35.32,35.32,0,0,1,6.24.56,1.38,1.38,0,0,1-.25,2.74ZM3.81,101a1.38,1.38,0,0,1-1.38-1.38,1.57,1.57,0,0,1,0-.37,70.23,70.23,0,0,1,2.41-7.08,1.38,1.38,0,0,1,2.56,1A66.43,66.43,0,0,0,5.13,100a1.37,1.37,0,0,1-1.32,1ZM9.26,87.4A1.37,1.37,0,0,1,7.89,86a1.33,1.33,0,0,1,.16-.65A74.54,74.54,0,0,1,11.89,79a1.38,1.38,0,0,1,2.3,1.51v0a67.57,67.57,0,0,0-3.7,6.17,1.38,1.38,0,0,1-1.22.73Zm8.16-12.19a1.37,1.37,0,0,1-1.37-1.37,1.41,1.41,0,0,1,.31-.88c1.58-1.91,3.27-3.77,5-5.52a1.38,1.38,0,1,1,2,1.91l0,0c-1.7,1.7-3.34,3.49-4.85,5.32a1.4,1.4,0,0,1-1.07.5ZM27.81,64.85a1.37,1.37,0,0,1-1.38-1.37,1.4,1.4,0,0,1,.5-1.07c1.9-1.57,3.91-3.08,6-4.48a1.38,1.38,0,1,1,1.6,2.24l0,0c-2,1.36-3.93,2.82-5.77,4.34a1.36,1.36,0,0,1-.87.31Zm12.11-8.28A1.38,1.38,0,0,1,39.25,54c2.15-1.21,4.4-2.34,6.66-3.36a1.38,1.38,0,0,1,1.14,2.51c-2.2,1-4.37,2.09-6.46,3.25a1.2,1.2,0,0,1-.67.17Zm13.38-6a1.37,1.37,0,0,1-.46-2.67c2.32-.82,4.72-1.56,7.12-2.19a1.39,1.39,0,0,1,1.69,1,1.38,1.38,0,0,1-1,1.68c-2.32.61-4.65,1.33-6.9,2.12a1.48,1.48,0,0,1-.46.08Z" transform="translate(0 0)"/><g id="Grupo_130" data-name="Grupo 130"><path id="Caminho_270" data-name="Caminho 270" class="cls-2" d="M149.77,2.77,15,20.75,47.68,45.53l.52,45.61L76.35,67.22,92.17,79.15Z" transform="translate(0 0)"/><g id="Grupo_129" data-name="Grupo 129"><g id="Grupo_128" data-name="Grupo 128"><path id="Caminho_271" data-name="Caminho 271" class="cls-3" d="M51.14,88.37l-.75-66.62L152.72,0Z" transform="translate(0 0)"/><path id="Caminho_272" data-name="Caminho 272" class="cls-4" d="M50.85,42.93C51.37,42.67,152.72,0,152.72,0L18,18Z" transform="translate(0 0)"/><path id="Caminho_273" data-name="Caminho 273" class="cls-5" d="M62,51.43,51.14,88.37,97.8,48.73Z" transform="translate(0 0)"/><path id="Caminho_274" data-name="Caminho 274" class="cls-4" d="M62,51.43l33.09,25L152.71,0Z" transform="translate(0 0)"/></g></g></g></g></svg>