<svg id="Camada_1" data-name="Camada 1" xmlns="http://www.w3.org/2000/svg" viewBox="0 0 616.7 528.87"><defs><style>.cls-1{fill:#110f10;}.cls-2{fill:#babab5;}.cls-3{fill:#771d42;}.cls-4{fill:#fefefe;}.cls-5{fill:#ad6179;}.cls-6{fill:#fff;}.cls-7{fill:#535259;}.cls-8{fill:#f88667;}.cls-9{fill:#e45940;}.cls-10{fill:#5ea6d3;}.cls-11{fill:#418fbf;}.cls-12{fill:#d0d1de;}</style></defs><title>slider</title><g id="Camada_1-2" data-name="Camada 1-2"><g id="Grupo_35" data-name="Grupo 35"><g id="Grupo_27" data-name="Grupo 27"><path id="Caminho_41" data-name="Caminho 41" class="cls-1" d="M378.09,516h-95.4l7.8-115h79.7Z"/><path id="Caminho_42" data-name="Caminho 42" class="cls-1" d="M390.59,497.57a6.4,6.4,0,0,0-5.2-2.8h-110a6.15,6.15,0,0,0-5.2,2.8l-14.4,21.5a6.37,6.37,0,0,0,1.7,8.7,6.08,6.08,0,0,0,3.5,1.1h138.9a6.23,6.23,0,0,0,6.2-6.2,6.61,6.61,0,0,0-1.1-3.5Z"/><path id="Retângulo_32" data-name="Retângulo 32" class="cls-1" d="M74,82.27H586.8a4.06,4.06,0,0,1,4.1,4V427.47a4.06,4.06,0,0,1-4,4.1H74a4.06,4.06,0,0,1-4.1-4V86.37a4.06,4.06,0,0,1,4-4.1Z"/><rect id="Retângulo_33" data-name="Retângulo 33" class="cls-2" x="93.89" y="105.37" width="473" height="299.4"/><rect id="Retângulo_34" data-name="Retângulo 34" class="cls-2" x="105.69" y="137.97" width="449.4" height="266.8"/><rect id="Retângulo_35" data-name="Retângulo 35" class="cls-3" x="105.69" y="137.97" width="449.4" height="22.1"/><rect id="Retângulo_36" data-name="Retângulo 36" class="cls-4" x="393.69" y="232.07" width="139.6" height="18.4"/><rect id="Retângulo_37" data-name="Retângulo 37" class="cls-4" x="393.69" y="264.67" width="139.6" height="18.4"/><rect id="Retângulo_38" data-name="Retângulo 38" class="cls-4" x="393.69" y="297.17" width="139.6" height="18.4"/><rect id="Retângulo_39" data-name="Retângulo 39" class="cls-4" x="147.19" y="182.27" width="139.6" height="18.4"/><rect id="Retângulo_40" data-name="Retângulo 40" class="cls-4" x="147.19" y="214.77" width="139.6" height="18.4"/></g><g id="Grupo_30" data-name="Grupo 30"><g id="Grupo_28" data-name="Grupo 28"><path id="Caminho_43" data-name="Caminho 43" class="cls-5" d="M280.2,220.49H16.7A16.73,16.73,0,0,0,0,237.19H0v85a16.73,16.73,0,0,0,16.7,16.7H181.8l62.9,53.5-29.9-53.5h65.4a16.73,16.73,0,0,0,16.7-16.7v-85A16.73,16.73,0,0,0,280.2,220.49Z"/><rect id="Retângulo_41" data-name="Retângulo 41" class="cls-6" x="99.3" y="243.39" width="177.6" height="10.2"/><rect id="Retângulo_42" data-name="Retângulo 42" class="cls-6" x="99.3" y="264.29" width="177.6" height="10.2"/><rect id="Retângulo_43" data-name="Retângulo 43" class="cls-6" x="99.3" y="285.09" width="177.6" height="10.2"/><rect id="Retângulo_44" data-name="Retângulo 44" class="cls-6" x="99.3" y="305.99" width="117.9" height="10.2"/><path id="Caminho_44" data-name="Caminho 44" class="cls-7" d="M85.2,277.89a34.3,34.3,0,1,1-34.3-34.3,34.3,34.3,0,0,1,34.3,34.3Z"/><ellipse id="Elipse_1" data-name="Elipse 1" class="cls-6" cx="51" cy="267.69" rx="9.7" ry="10"/><path id="Caminho_45" data-name="Caminho 45" class="cls-6" d="M51.1,279.19h-.3a17.2,17.2,0,0,0-17.2,17.2h0v10.9a33.31,33.31,0,0,0,34.7,0v-11a17,17,0,0,0-17-17.1Z"/></g><g id="Grupo_29" data-name="Grupo 29"><path id="Caminho_46" data-name="Caminho 46" class="cls-5" d="M599.89,0H336.39a16.73,16.73,0,0,0-16.7,16.7h0v85a16.73,16.73,0,0,0,16.7,16.7h76.3l-20.4,53.5,53.5-53.5H600a16.73,16.73,0,0,0,16.7-16.7h0v-85A16.88,16.88,0,0,0,599.89,0Z"/><rect id="Retângulo_45" data-name="Retângulo 45" class="cls-6" x="418.99" y="22.9" width="177.6" height="10.2"/><rect id="Retângulo_46" data-name="Retângulo 46" class="cls-6" x="418.99" y="43.8" width="177.6" height="10.2"/><rect id="Retângulo_47" data-name="Retângulo 47" class="cls-6" x="418.99" y="64.6" width="177.6" height="10.2"/><rect id="Retângulo_48" data-name="Retângulo 48" class="cls-6" x="418.99" y="85.5" width="117.9" height="10.2"/><path id="Caminho_47" data-name="Caminho 47" class="cls-7" d="M404.89,57.4a34.3,34.3,0,1,1-34.3-34.3h0a34.29,34.29,0,0,1,34.3,34.28Z"/><path id="Caminho_48" data-name="Caminho 48" class="cls-6" d="M380.29,47.2a9.78,9.78,0,1,1-9.7-10,9.79,9.79,0,0,1,9.7,10Z"/><path id="Caminho_49" data-name="Caminho 49" class="cls-6" d="M370.79,58.6h-.3a17.2,17.2,0,0,0-17.2,17.2h0V86.7a33.31,33.31,0,0,0,34.7,0V75.8A17.25,17.25,0,0,0,370.79,58.6Z"/></g></g><g id="Grupo_32" data-name="Grupo 32"><path id="Retângulo_49" data-name="Retângulo 49" class="cls-5" d="M408.4,345.56H539a2.26,2.26,0,0,1,2.3,2.22v38.28a2.26,2.26,0,0,1-2.22,2.3H408.4a2.26,2.26,0,0,1-2.3-2.22V347.86a2.26,2.26,0,0,1,2.22-2.3Z"/><g id="Grupo_31" data-name="Grupo 31"><path id="Caminho_50" data-name="Caminho 50" class="cls-6" d="M460.21,361.75a4.52,4.52,0,0,1-3.6,4.5,5.1,5.1,0,0,1,4.3,5.3c0,3.6-3.1,5.8-8.1,5.8h-10.3v-20.9h9.9C457.21,356.45,460.21,358.55,460.21,361.75Zm-5.6.9c0-1.3-.9-2-2.4-2H448v4.1h4.2c1.5,0,2.4-.8,2.4-2.1Zm.6,8.2c0-1.3-1.2-2.1-3.1-2.1H448v4.4h4.2c1.8,0,3-.9,3-2.3Z"/><path id="Caminho_51" data-name="Caminho 51" class="cls-6" d="M473.21,373c2.4,0,4.1-1.6,4.1-4.4V356.5h5.5v12.1c0,5.5-3.7,9-9.6,9s-9.7-3.5-9.7-9V356.5H469v12.1a4,4,0,0,0,3.68,4.29h.12A.6.6,0,0,0,473.21,373Z"/><path id="Caminho_52" data-name="Caminho 52" class="cls-6" d="M497.41,370.65v6.7h-5.5v-6.5l-7.6-14.4h5.5l5,9,4.7-9H505Z"/></g></g><g id="Grupo_34" data-name="Grupo 34"><path id="Caminho_53" data-name="Caminho 53" class="cls-8" d="M346.3,209.28a74.65,74.65,0,0,1-21.1.9,31.24,31.24,0,0,1-7.4-1.6c.3,8.8.4,29.4-5.9,38,0,0,2.3,10.1,20.6,10.4s20.4-13.5,20.4-13.5S346.7,222.28,346.3,209.28Z"/><path id="Caminho_54" data-name="Caminho 54" class="cls-9" d="M312,246.88c.1.2.2.5.3.7v.1c.2.4.4.7.6,1.1v.1c.28.45.58.88.9,1.3l.2.2a18.21,18.21,0,0,0,3.3,2.9l.2.2a19.75,19.75,0,0,0,2.5,1.3c.1.1.3.1.4.2a30.2,30.2,0,0,0,3.2,1.1,25.59,25.59,0,0,1,5.4-13,32.25,32.25,0,0,1,20.6-12c-1.6-6.9-3.2-15.3-3.3-21.6a74.65,74.65,0,0,1-21.1.9,31.24,31.24,0,0,1-7.4-1.6c.3,8.8.4,29.4-5.9,38l.1.1Z"/><path id="Caminho_55" data-name="Caminho 55" class="cls-8" d="M321,159.88s30-8.9,34.8-1.6,3.9,19,5.9,24.2,9.4,10.6,10.2,12.7-5,6-5.8,7.6-3.8,18.6-9,22.4-33.2-6.2-40.1-19.4S312.9,164.28,321,159.88Z"/><path id="Caminho_56" data-name="Caminho 56" class="cls-7" d="M334.6,165.18a28.77,28.77,0,0,1-3.2,15.5c-1.8,3.6,7.2,13.1,4.7,17.5-1.7,2.9-4.1,2.2-6.3-3.6-.8-2-2.9-3.3-4.9-4.1-7.3-3.2-9.1,8-2.5,11.3,4.6,2.3,1.9,14,1.9,14-4.9,3.8-21.3-.8-19.5-12.7,1.1-7.6,1.6-10.5-1-12.4-4.8-3.4-11.1-12.7-3.2-20.6,10.9-10.9,1-14.3,13.6-17.5S337.4,157.28,334.6,165.18Z"/><path id="Caminho_57" data-name="Caminho 57" class="cls-7" d="M312.3,158.78c.7-2.8,5.7-6.3,8.2-8.2a34.93,34.93,0,0,1,12.9-5.8,33.18,33.18,0,0,1,14.4-.5c4.1.8,7.5,2.6,11.7,3.1,3.9.4,7.7.3,10.5-2a27.35,27.35,0,0,1,.5,9.5c-.7,3.7-3.2,7.1-5.4,10.4-6.1,9.1-22.7,14.1-34.3,9.3-5.6-2.3-10.7-4.3-13.5-9.2A32.78,32.78,0,0,0,312.3,158.78Z"/><path id="Caminho_58" data-name="Caminho 58" class="cls-7" d="M472.5,178.38l29,64.4s-8.5,9.6-11.3,7.4-46.4-54.4-50.6-57.1S472.5,178.38,472.5,178.38Z"/><path id="Caminho_59" data-name="Caminho 59" class="cls-10" d="M400.5,186.38s.1,18.5,11.4,22.8c0,0,58-24.1,69.7-26.4s54.1-2.7,54.1-2.7l-42.8-76.4s-20.5,41-39.3,54.5S400.5,186.38,400.5,186.38Z"/><path id="Caminho_60" data-name="Caminho 60" class="cls-7" d="M438.1,198.48c4.6-1.8,9.4-3.7,14.1-5.5-7.1-8-10.8-19.2-12.2-26.2-4.4,2.5-9,5-13.4,7.2A54,54,0,0,0,438.1,198.48Z"/><path id="Caminho_61" data-name="Caminho 61" class="cls-3" d="M551.6,123.38c12.1,29.2,7.8,58.6-9.5,65.8s-41.3-10.6-53.4-39.8-7.8-58.6,9.5-65.8S539.5,94.18,551.6,123.38Z"/><path id="Caminho_62" data-name="Caminho 62" class="cls-7" d="M549.3,124.28c10.3,24.8,6.6,49.9-8.1,56s-35.1-9-45.4-33.8-6.6-49.9,8.1-56S539,99.48,549.3,124.28Z"/><path id="Caminho_63" data-name="Caminho 63" class="cls-8" d="M468.6,224.68c-1.4-.8-1-6-.7-7.4.4-2.1,1.9-4.9.4-6.9-2.6-3.6-6.2,6-6.7,7.4-.9,2.7-1.2,4.5-.7,6.4.5,1.6,3.3,6.6,5.6,8.4-.3,1-.6,1.9-.9,3a65.28,65.28,0,0,1,7,3.5c2.8,1.6,2.7,3.6,5.3,5.4l2.6-6C479.4,237.28,470.9,226.08,468.6,224.68Z"/><path id="Caminho_64" data-name="Caminho 64" class="cls-8" d="M487.2,203.68c-2.5-2.7-6.4-1.7-9.4.6-2.2,1.6-8.6,6.8-6.9,10.5,1.4,3.1,9.6-3.8,9.6-3.8-3,2.6-8.7,4.7-7.2,7.3,1.6,2.9,8.8-1.2,10.3-2.4-1.6.4-9.6,5.3-6.4,7.8,2.2,1.7,8.1-1.9,9.8-3.2-2.4.7-5.6,2.8-5,6.1,1,1.8,4.6.6,6.6-.2,3-1.2,5.8-1.7,6.1-5.4a13.34,13.34,0,0,0,.1-2,20.89,20.89,0,0,0-2.6-8.1A29.85,29.85,0,0,0,487.2,203.68Z"/><path id="Caminho_65" data-name="Caminho 65" class="cls-8" d="M181.7,225a35.91,35.91,0,0,1-3.4-7.1c-.7-2.1-1.3-4.3-2-6.5s-1.6-4.1-1.4-6.3a17.9,17.9,0,0,1,.8-3.9c.4-1.6,1-3.2,1.4-4.9.3-1.5.2-2.9.5-4.4a25.69,25.69,0,0,1,2.6-8.1,31.44,31.44,0,0,1,3.7-5.1c.7-.8,1.4-1.6,2.2-2.4a5.46,5.46,0,0,0,2-2.5,2.39,2.39,0,0,0-1.3-3.1.63.63,0,0,0-.4-.1c-2.6-.7-6.6.5-8.2,2.7-2.2,3-3.2,6.7-5.7,9.6-7.4,8.9-14.4-1.6-23.1-5.3a46,46,0,0,1-8.4-5.4c-1.5-1.2-8.2-7.5-11.4-5.8-2.3,1.2,2.2,6.5,4.4,7.8.9.5,8.3,6.6,9.3,6.8-2.2-.4-7.9-4.1-12.5-7.7-3.3-2.6-6.5-5.1-8.3-3.6-5.5,4.5,16.2,14.9,17.9,15.8-1.8.2-18.8-11.9-20.4-7.5-.9,2.4,2.6,4.8,5.5,6.4,3.6,2,9.7,3.4,11,4.4-2.6.9-13.8-6.8-13.8-2.1,0,3.1,7,5.3,9.6,6.1s10.7,6.2,13.2,7.4c8.4,4,11.9,3.5,15.2,8.6,2.1,3.2,5.9,20.1,8.9,26.6Z"/><path id="Caminho_66" data-name="Caminho 66" class="cls-10" d="M464,233.38c-7.5,21.8-23.5,60.3-28.8,57.6-9.9-5.1-31.2-22.5-47.2-33.2-12.3-8.3-18.5-10.7-18.5-10.7l11.1,52.6s52.6,39.9,63.6,33.8c8.7-4.8,30-65.5,37.5-90.7C481.7,242.88,464.1,233.48,464,233.38Z"/><path id="Caminho_67" data-name="Caminho 67" class="cls-11" d="M411.9,308.38c-5.9-7.7-28.5-29.8-34.7-34.6l1.8,24.9s53,39.8,64.7,34.9C433.6,327.18,419.1,317.78,411.9,308.38Z"/><path id="Caminho_68" data-name="Caminho 68" class="cls-10" d="M280.3,249.88s-64.7,26.1-71.7,24.3-30.5-68.5-30.5-68.5l-19.6,8s20.9,96.2,34.4,100.6,93.7-18.7,93.7-18.7S287.9,272.28,280.3,249.88Z"/><path id="Caminho_69" data-name="Caminho 69" class="cls-11" d="M225.1,308.28c-5.7,2-11.5,4.1-17.3,5.8,27.4-3.6,78.8-18.5,78.8-18.5a142.25,142.25,0,0,0-1.4-24.4C269.3,288.38,246.7,300.58,225.1,308.28Z"/><path id="Caminho_70" data-name="Caminho 70" class="cls-12" d="M518.6,142.08c-3-9.1-11.9-14.4-19.9-11.8a14.16,14.16,0,0,0-6.7,4.8,89.17,89.17,0,0,0,3.7,11.4,77,77,0,0,0,10,17.4,11.9,11.9,0,0,0,3.7-.6C517.5,160.68,521.6,151.18,518.6,142.08Z"/><g id="Grupo_33" data-name="Grupo 33"><path id="Caminho_71" data-name="Caminho 71" class="cls-10" d="M280.39,328.62c-2.3,22.4-4.1,69.6-5.4,76.2h106.1c1.9-35.2,1.2-86.3-.5-105-3-32.8-11.1-52.7-11.1-52.7s-7.9-2.5-17.3-6.1c0,0-19.5,11.9-37.7.2,0,0-32.8,7.8-36.8,9.7C274.39,252.42,282.79,304.62,280.39,328.62Z"/><path id="Caminho_72" data-name="Caminho 72" class="cls-10" d="M308.49,359.32a84.26,84.26,0,0,0-6.1-30.6,32.46,32.46,0,0,1-2-6.9c-.9-7-2.4-11.7-4.5-15.7-2.4-3.6-4.8-7.1-7.1-10.8-1.3-1.8-2.7-3.6-4.2-5.8a97.22,97.22,0,0,1-6.4-11.4c1.2,16.5,3.4,38.5,2.2,50.5-2.3,22.4-4.1,69.6-5.4,76.2h49.4c-6.3-8.2-10.2-18.1-13.9-30.2A53.12,53.12,0,0,1,308.49,359.32Z"/></g></g></g></g></svg>