<svg id="Camada_1" data-name="Camada 1" xmlns="http://www.w3.org/2000/svg" viewBox="0 0 466.01 440.57"><defs><style>.cls-1{fill:#646468;}.cls-2{fill:#333032;}.cls-3{fill:#babab5;}.cls-4{fill:#110f10;}.cls-5{fill:#110239;}.cls-6{fill:#5b1334;}.cls-7{fill:#771d42;}.cls-8{fill:#f88667;}.cls-9{fill:#e45940;}.cls-10{fill:#5ea6d3;}.cls-11{fill:#418fbf;}.cls-12{fill:#fd425f;}</style></defs><title>sobre</title><g id="Grupo_112" data-name="Grupo 112"><g id="Grupo_106" data-name="Grupo 106"><path id="Caminho_219" data-name="Caminho 219" class="cls-1" d="M416.51,51.78s23,5.1,49.5,28.2l-31.8,58.1a67.86,67.86,0,0,0-32.6-17.5Z" transform="translate(0 -13.08)"/><path id="Caminho_220" data-name="Caminho 220" class="cls-2" d="M422.21,88.58c2.8-10.4,5.1-20.9,7.8-31.4a98.19,98.19,0,0,0-13.5-5.5l-14.9,68.9c8.3-7.2,10.6-4.5,12-5.2A270.41,270.41,0,0,0,422.21,88.58Z" transform="translate(0 -13.08)"/><path id="Caminho_221" data-name="Caminho 221" class="cls-3" d="M292,20.08s90-9,139.9,16.9l-18.4,78.4s-44.1-23.7-117.3-13.6Z" transform="translate(0 -13.08)"/><rect id="Retângulo_79" data-name="Retângulo 79" class="cls-4" x="291.91" width="7.2" height="308.3"/><rect id="Retângulo_80" data-name="Retângulo 80" class="cls-5" x="286.41" y="299" width="18.2" height="14.5"/><rect id="Retângulo_81" data-name="Retângulo 81" class="cls-5" x="279.31" y="310.3" width="32.4" height="7.3"/></g><g id="Grupo_107" data-name="Grupo 107"><path id="Caminho_222" data-name="Caminho 222" class="cls-3" d="M163.2,149.45v51.4H176v-36.2a6.59,6.59,0,0,1,6.58-6.6H237.7a6.59,6.59,0,0,1,6.6,6.58v36.22h12.8v-51.4a6.59,6.59,0,0,0-6.58-6.6H169.7A6.57,6.57,0,0,0,163.2,149.45Z" transform="translate(0 -13.08)"/><path id="Retângulo_82" data-name="Retângulo 82" class="cls-6" d="M4.4,183.45H415.9a4.37,4.37,0,0,1,4.4,4.34v.06h0v261.4a4.37,4.37,0,0,1-4.34,4.4H4.4A4.37,4.37,0,0,1,0,449.31v-.06H0V187.85A4.44,4.44,0,0,1,4.4,183.45Z" transform="translate(0 -13.08)"/><path id="Caminho_223" data-name="Caminho 223" class="cls-7" d="M420.4,258.75V206a22.53,22.53,0,0,0-22.5-22.5H22.5A22.53,22.53,0,0,0,0,206v52.8a58,58,0,0,0,58,58H362.4A58,58,0,0,0,420.4,258.75Z" transform="translate(0 -13.08)"/><rect id="Retângulo_83" data-name="Retângulo 83" class="cls-3" x="196.8" y="291.47" width="26.7" height="30.4"/><rect id="Retângulo_84" data-name="Retângulo 84" class="cls-4" x="205.9" y="306.07" width="8.6" height="7.5"/></g><g id="Grupo_110" data-name="Grupo 110"><path id="Caminho_224" data-name="Caminho 224" class="cls-8" d="M100.53,49.6H86.43s-2,19.2-5.7,21.4c0,0-4.5,22.6,12.7,22.6,21,.1,12.8-22.5,12.8-22.5C102.53,68.8,100.53,49.6,100.53,49.6Z" transform="translate(0 -13.08)"/><path id="Caminho_225" data-name="Caminho 225" class="cls-9" d="M100.53,49.6H86.43s-2,19.2-5.7,21.4c0,0-4.5,22.6,12.7,22.6,21,.1,12.8-22.5,12.8-22.5C102.53,68.8,100.53,49.6,100.53,49.6Z" transform="translate(0 -13.08)"/><g id="Grupo_108" data-name="Grupo 108"><path id="Caminho_226" data-name="Caminho 226" class="cls-8" d="M111.83,53.4c-1.9-2.2-4.3,1.2-4.3,1.2s3.2-12.7,0-18.2-13.7-2.7-13.7-2.7-10.4-2.9-13.6,2.6,0,18.2,0,18.2-2.4-3.3-4.3-1.1,3.2,7.9,4.4,8.6c0,0,7.5,14,13.6,14s13.5-14,13.5-14C108.53,61.3,113.73,55.6,111.83,53.4Z" transform="translate(0 -13.08)"/><path id="Caminho_227" data-name="Caminho 227" class="cls-4" d="M91.23,38.7s-7.9,1.4-8.8,5.6a16.72,16.72,0,0,0,.4,6.3c.2,1.1,1,6.8.7,7a1.15,1.15,0,0,1-1-.2,16.85,16.85,0,0,1-2.7-3.2c-1.5-2.2-3.7-1.8-4.3-.4,0,0-1.8-20.8,6.9-21.5S91.23,38.7,91.23,38.7Z" transform="translate(0 -13.08)"/><path id="Caminho_228" data-name="Caminho 228" class="cls-4" d="M96.33,38.7s7.9,1.4,8.8,5.6a16.72,16.72,0,0,1-.4,6.3c-.2,1.1-1,6.8-.7,7a1.15,1.15,0,0,0,1-.2,16.85,16.85,0,0,0,2.7-3.2c1.5-2.2,3.7-1.8,4.3-.4,0,0,1.8-20.8-6.9-21.5S96.33,38.7,96.33,38.7Z" transform="translate(0 -13.08)"/><path id="Caminho_229" data-name="Caminho 229" class="cls-4" d="M109.43,35.2a9.74,9.74,0,0,0-5.7-6.9,26.1,26.1,0,0,0-16.8-1c-11,2.8-11.2,14.2-7,17.7,3.1,2.6,5.3,3.9,10.2,3.9C105.43,48.9,111.73,39.9,109.43,35.2Z" transform="translate(0 -13.08)"/></g><path id="Caminho_230" data-name="Caminho 230" class="cls-10" d="M106.23,71.08c-.7,19.2-12.7,17.3-12.7,17.3s-12,2-12.7-17.3c0,0-19.2,5.3-28.5,11.6a176.74,176.74,0,0,1,4.2,35.5l10.9,42.4,26,1.3,26-1.3,10.9-42.4a193.56,193.56,0,0,1,4.2-35.5C125.33,76.4,106.23,71.08,106.23,71.08Z" transform="translate(0 -13.08)"/><path id="Caminho_231" data-name="Caminho 231" class="cls-11" d="M128.63,93.8c-11.9,6.3-17.7,20.9-29.3,28.1-12,7.4-20.4-7.6-26.2-15.3A45.71,45.71,0,0,0,54,91.4a172,172,0,0,1,2.5,26.8l10.9,42.4,26,1.3,26-1.3,10.9-42.4a178.44,178.44,0,0,1,2.5-26.4A31.93,31.93,0,0,0,128.63,93.8Z" transform="translate(0 -13.08)"/><path id="Caminho_232" data-name="Caminho 232" class="cls-12" d="M141.83,177.7c0-14.9-18.5-24.7-18.5-24.7h-62s-18.5,9.8-18.5,24.7a74.18,74.18,0,0,0,1.5,11.5h20.6c-.8,1.5-1.6,2.9-2.2,4.1a9.12,9.12,0,0,1-.6,1h15c1.1,0,.8.5.5-1.2-.5-2.4-1.9-3.7-.5-6.2,1.1-1.9,6.7-3.5,8.9-3.6h1.4c3.2.1,6.5.1,9.7,0a22,22,0,0,1,3.6.6c1,.2,4.2-.1,5.5,1.7.9,1.2.8,2.2,1.1,3.6a29.22,29.22,0,0,1-.6,5.1h18.8a60.11,60.11,0,0,1-3.6-5.1h18.3A64.71,64.71,0,0,0,141.83,177.7Z" transform="translate(0 -13.08)"/><path id="Caminho_233" data-name="Caminho 233" class="cls-11" d="M141.83,177.7c0-14.9-18.5-24.7-18.5-24.7h-62s-18.5,9.8-18.5,24.7a74.18,74.18,0,0,0,1.5,11.5h20.6c-.8,1.5-1.6,2.9-2.2,4.1a9.12,9.12,0,0,1-.6,1h15c1.1,0,.8.5.5-1.2-.5-2.4-1.9-3.7-.5-6.2,1.1-1.9,6.7-3.5,8.9-3.6h1.4c3.2.1,6.5.1,9.7,0a22,22,0,0,1,3.6.6c1,.2,4.2-.1,5.5,1.7.9,1.2.8,2.2,1.1,3.6a29.22,29.22,0,0,1-.6,5.1h18.8a60.11,60.11,0,0,1-3.6-5.1h18.3A64.71,64.71,0,0,0,141.83,177.7Z" transform="translate(0 -13.08)"/><path id="Caminho_234" data-name="Caminho 234" class="cls-10" d="M52.23,82.6s-23.7,51.2-22,58c.4,1.7,29.2,19.1,42.8,16.6l5.5-1C78.63,156.2,58.53,82.3,52.23,82.6Z" transform="translate(0 -13.08)"/><path id="Caminho_235" data-name="Caminho 235" class="cls-10" d="M134.63,82.6s23.7,51.2,22,58c-.4,1.7-29.2,19.1-42.8,16.6l-5.5-1S128.43,82.3,134.63,82.6Z" transform="translate(0 -13.08)"/><path id="Caminho_236" data-name="Caminho 236" class="cls-11" d="M61.53,100.5a31.6,31.6,0,0,1-.9,7.5c-2.1,9.2-5.4,18.9-1.9,28.3,2.6,7.1,6.8,14.3,10.7,21.1a16.11,16.11,0,0,0,3.8-.2l5.5-1C78.63,156.2,69.43,122.3,61.53,100.5Z" transform="translate(0 -13.08)"/><path id="Caminho_237" data-name="Caminho 237" class="cls-11" d="M121.73,157a33.58,33.58,0,0,0,2.6-13.6c-.3-9.5-.4-18.9-.2-28.4.1-4.1.2-8,.4-11.9-7.7,21.8-16.2,53.2-16.2,53.2l5.5,1A26.17,26.17,0,0,0,121.73,157Z" transform="translate(0 -13.08)"/><path id="Caminho_238" data-name="Caminho 238" class="cls-4" d="M66.14,266.3s-15,17.9-16.8,21.7,2.5,8.6,8.4,6.6,9.3-5.9,9.4-8.5,3.2-3.9,4.6-4.1,9.2-9.1,8.4-11.5-4.7-5.1-4.7-5.1Z" transform="translate(0 -13.08)"/><path id="Caminho_239" data-name="Caminho 239" class="cls-4" d="M119.9,264.89s15,17.9,16.8,21.7-2.5,8.6-8.4,6.6-9.3-5.9-9.4-8.5-3.2-3.9-4.6-4.1-9.2-9.1-8.4-11.5,4.7-5.1,4.7-5.1Z" transform="translate(0 -13.08)"/><path id="Caminho_240" data-name="Caminho 240" class="cls-8" d="M70.14,180.69c-1.28-4.12-1.56-12.75-10-12.75-16.41,0-12.59,17.83-12.31,20.51C50.27,215,62.15,267.9,62.15,267.9H78.53s-6-64.88-6.93-74.85C71.55,191.71,71,183.47,70.14,180.69Z" transform="translate(0 -13.08)"/><path id="Caminho_241" data-name="Caminho 241" class="cls-8" d="M115,180c1.23-4.12,1.5-12.75,9.7-12.75,15.84,0,12.15,17.83,11.88,20.51-2.39,26.55-13.86,79.45-13.86,79.45H106.86s5.8-64.88,6.69-74.85C113.62,191,114.16,182.76,115,180Z" transform="translate(0 -13.08)"/><g id="Grupo_109" data-name="Grupo 109"><rect id="Retângulo_85" data-name="Retângulo 85" class="cls-4" x="59.39" y="143.71" width="68.2" height="4"/><path id="Caminho_242" data-name="Caminho 242" class="cls-4" d="M137.69,109.48H49.29s-4.8,0-4,5.3,12,42.5,14.2,42.5h67.8c2,0,13.4-37.2,14.2-42.5S137.69,109.48,137.69,109.48Z" transform="translate(0 -13.08)"/><path id="Caminho_243" data-name="Caminho 243" class="cls-4" d="M97.19,135.28a3.7,3.7,0,1,1-3.7-3.7h0a3.69,3.69,0,0,1,3.7,3.68Z" transform="translate(0 -13.08)"/></g></g><g id="Grupo_111" data-name="Grupo 111"><path id="Caminho_244" data-name="Caminho 244" class="cls-3" d="M184.62,386.37l4.1,12.6H202l-10.8,7.8,4.1,12.6-10.7-7.8-10.8,7.8,4.1-12.6L167.2,399h13.3Z" transform="translate(0 -13.08)"/><path id="Caminho_245" data-name="Caminho 245" class="cls-3" d="M231.92,386.37,236,399h13.3l-10.7,7.8,4.1,12.6-10.7-7.8-10.8,7.8,4.1-12.6-10.7-7.8h13.3Z" transform="translate(0 -13.08)"/><path id="Caminho_246" data-name="Caminho 246" class="cls-3" d="M279.32,386.37l4.1,12.6h13.3l-10.7,7.8,4.1,12.6-10.7-7.8-10.8,7.8,4.1-12.6L262,399h13.2Z" transform="translate(0 -13.08)"/><path id="Caminho_247" data-name="Caminho 247" class="cls-3" d="M326.72,386.37l4.1,12.6h13.3l-10.7,7.8,4.1,12.6-10.7-7.8-10.9,7.8,4.1-12.6-10.7-7.8h13.3Z" transform="translate(0 -13.08)"/><path id="Caminho_248" data-name="Caminho 248" class="cls-3" d="M374,386.37l4.1,12.6h13.3l-10.7,7.8,4.1,12.6-10.7-7.8-10.8,7.8,4.1-12.6L356.7,399H370Z" transform="translate(0 -13.08)"/></g></g></svg>